<!DOCTYPE svg PUBLIC "-//W3C//DTD SVG 1.1//EN"
   "http://www.w3.org/Graphics/SVG/1.1/DTD/svg11.dtd">

<svg width="1200" height="900" viewBox="0 0 1200 900"
  xmlns="http://www.w3.org/2000/svg"
  xmlns:xlink="http://www.w3.org/1999/xlink">
  <title>Example arcs02 - arc options in paths</title>
  <desc>Pictures showing the result of setting
        large-arc-flag and sweep-flag to the four
        possible combinations of 0 and 1.</desc>
  <g style="font-family:Verdana">
    <defs>
  <g id="ex" style="stroke: black; fill: none;">
    <path d="M-10-10 10 10M-10 10 10-10"/>
  </g>
  <marker id="arrowhead"
    orient="auto"
    viewBox="0 0 10 10"
    refX="5" refY="5"
    marker-width="10"
    marker-height="10">
    <path d="M 0 0 L 10 5 L 0 10 z" />
  </marker>
  
  <g id="ellipse-text" style="font-size:20; fill: gray; stroke: none;">
        <text x="35" y="70">Arc start</text>
        <text x="225" y="145">Arc end</text>
  </g>
  <g id="positive-ellipse">
         <ellipse cx="125" cy="125" rx="100" ry="50"
                 style="fill:none; stroke-width:2"/>
    <use xlink:href="#ellipse-text"/>
  </g>
  <g id="negative-ellipse">
        <ellipse cx="225" cy="75" rx="100" ry="50"
                 style="fill:none; stroke-width:2"/>
    <use xlink:href="#ellipse-text"/>
  </g>
    <g id="baseEllipses" style="font-size:20">
        <ellipse cx="125" cy="125" rx="100" ry="50"
                 style="fill:none; stroke:#888888; stroke-width:2"/>
        <ellipse cx="225" cy="75" rx="100" ry="50"
                 style="fill:none; stroke:#888888; stroke-width:2"/>
        <text x="35" y="70">Arc start</text>
        <text x="225" y="145">Arc end</text>
      </g>
    </defs>

    <g style="font-size:30">
      <g transform="translate(0,0)">
        <use xlink:href="#baseEllipses"/>
    <use xlink:href="#ex" transform="translate(125,75)"/>
    <use xlink:href="#ex" transform="translate(225,125)"/>
      <text x="20" y="230">a</text>
    <circle cx="30" cy="220" r="20"
      style="fill: none; stroke: black; stroke-width: 2;"/>
     </g>
      <g transform="translate(400,0)">
      <text x="10" y="230">b</text>
    <circle cx="20" cy="220" r="20"
      style="fill: none; stroke: black; stroke-width: 2;"/>
        <text x="50" y="210">large-arc-flag=0</text>
        <text x="50" y="250">sweep-flag=0</text>
        <use xlink:href="#negative-ellipse" style="stroke: #666666;"/>
    <use xlink:href="#positive-ellipse"
      style="stroke: #cccccc; stroke-dasharray: 10 5;"/>
        <path d="M 125,75 a100,50 0 0,0 100,50"
              style="fill:none; stroke:black; stroke-width:6;
        marker-end: url(#arrowhead)"/>
      </g>
      <g transform="translate(800,0)">
        <text x="50" y="210">large-arc-flag=0</text>
        <text x="50" y="250">sweep-flag=1</text>
      <text x="10" y="230">c</text>
    <circle cx="20" cy="220" r="20"
      style="fill: none; stroke: black; stroke-width: 2;"/>
        <use xlink:href="#positive-ellipse" style="stroke: #666666;"/>
    <use xlink:href="#negative-ellipse"
      style="stroke: #cccccc; stroke-dasharray: 10 5;"/>
       <path d="M 125,75 a100,50 0 0,1 100,50"
              style="fill:none; stroke:black; stroke-width:6;
        marker-end: url(#arrowhead)"/>
      </g>
      <g transform="translate(400,250)">
        <text x="50" y="210">large-arc-flag=1</text>
        <text x="50" y="250">sweep-flag=0</text>
      <text x="10" y="230">d</text>
    <circle cx="20" cy="220" r="20"
      style="fill: none; stroke: black; stroke-width: 2;"/>
        <use xlink:href="#positive-ellipse" style="stroke: #666666;"/>
    <use xlink:href="#negative-ellipse"
      style="stroke: #cccccc; stroke-dasharray: 10 5;"/>
        <path d="M 125,75 a100,50 0 1,0 100,50"
              style="fill:none; stroke:black; stroke-width:6;
        marker-end: url(#arrowhead)"/>
      </g>
      <g transform="translate(800,250)">
        <text x="50" y="210">large-arc-flag=1</text>
        <text x="50" y="250">sweep-flag=1</text>
      <text x="10" y="230">e</text>
    <circle cx="20" cy="220" r="20"
      style="fill: none; stroke: black; stroke-width: 2;"/>
        <use xlink:href="#negative-ellipse" style="stroke: #666666;"/>
    <use xlink:href="#positive-ellipse"
      style="stroke: #cccccc; stroke-dasharray: 10 5;"/>
        <path d="M 125,75 a100,50 0 1,1 100,50"
              style="fill:none; stroke:black; stroke-width:6;
        marker-end: url(#arrowhead)"/>
      </g>
       <g transform="translate(800,550)">
     <ellipse cx="186.9929" cy="59.5105"
        rx="100" ry="50" transform="rotate(30, 186.9929, 59.5105)"
      style="fill:none; stroke: #888888; stroke-width:2"/>
    <ellipse cx="163.00" cy="140.4895"
      rx="100" ry="50" transform="rotate(30, 163, 140.4895)"
      style="fill:none; stroke: #888888; stroke-width:2"/>      
    <use xlink:href="#ex" transform="translate(125,75)"/>
    <use xlink:href="#ex" transform="translate(225,125)"/>
      <text x="20" y="130">f</text>
    <circle cx="30" cy="120" r="20"
      style="fill: none; stroke: black; stroke-width: 2;"/>
        <text x="30" y="240">x-axis-rotation=30</text>
    </g>
    </g>
  </g>
</svg>
