<!DOCTYPE svg PUBLIC "-//W3C//DTD SVG 1.1//EN"
   "http://www.w3.org/Graphics/SVG/1.1/DTD/svg11.dtd">

<svg id="body"
  xmlns="http://www.w3.org/2000/svg"
  xmlns:xlink="http://www.w3.org/1999/xlink"
  width="200" height="200">
<title>Pixel Graphics</title>

<defs>
  <rect id="c" x="1" y="1" width="18" height="18"
    style="fill: blue; stroke: none;"/>
  <rect id="bl" x="1" y="1" width="18" height="18"
    style="fill: black; stroke: none;"/>
</defs>
<image xlink:href="graph_paper.svg" x="0" y="0"
  width="200" height="200" />
<use xlink:href="#bl" transform="translate(20, 20)"/>
<use xlink:href="#bl" transform="translate(40, 20)"/>
<use xlink:href="#bl" transform="translate(60, 20)"/>
<use xlink:href="#bl" transform="translate(80, 20)"/>
<use xlink:href="#bl" transform="translate(100, 20)"/>
<use xlink:href="#bl" transform="translate(120, 20)"/>


<use xlink:href="#bl" transform="translate(20, 100)"/>
<use xlink:href="#bl" transform="translate(40, 100)"/>
<use xlink:href="#bl" transform="translate(60, 100)"/>
<use xlink:href="#bl" transform="translate(80, 100)"/>
<use xlink:href="#bl" transform="translate(100, 100)"/>
<use xlink:href="#bl" transform="translate(120, 100)"/>

<use xlink:href="#bl" transform="translate(20, 40)"/>
<use xlink:href="#bl" transform="translate(20, 60)"/>
<use xlink:href="#bl" transform="translate(20, 80)"/>

<use xlink:href="#bl" transform="translate(120, 40)"/>
<use xlink:href="#bl" transform="translate(120, 60)"/>
<use xlink:href="#bl" transform="translate(120, 80)"/>

<use xlink:href="#c" transform="translate(40,40)"/>
<use xlink:href="#c" transform="translate(60,40)"/>
<use xlink:href="#c" transform="translate(80,40)"/>
<use xlink:href="#c" transform="translate(100,40)"/>

<use xlink:href="#c" transform="translate(40,60)"/>
<use xlink:href="#c" transform="translate(60,60)"/>
<use xlink:href="#c" transform="translate(80,60)"/>
<use xlink:href="#c" transform="translate(100,60)"/>

<use xlink:href="#c" transform="translate(40,80)"/>
<use xlink:href="#c" transform="translate(60,80)"/>
<use xlink:href="#c" transform="translate(80,80)"/>
<use xlink:href="#c" transform="translate(100,80)"/>

</svg>
