<!DOCTYPE svg PUBLIC "-//W3C//DTD SVG 1.1//EN"
   "http://www.w3.org/Graphics/SVG/1.1/DTD/svg11.dtd">

<svg width="400" height="300"
  xmlns="http://www.w3.org/2000/svg"
  xmlns:xlink="http://www.w3.org/1999/xlink">
>
<title>Demonstration of preserveAspectRatio "none"</title>
<desc>
  Shows the effect of preserveAspectRatio = "none"
  to stretch and squash a figure in X and Y directions.
</desc>
<defs>

<g id="cat">
  <circle cx="42" cy="57" r="30" style="stroke: black; fill: none;"/>
  <circle cx="33" cy="48" r="3" style="stroke:none; fill:#339933;"/>
  <circle cx="51" cy="48" r="3" style="stroke:none; fill:#339933;"/>
  <g id="whiskers">
    <line x1="45" y1="57" x2="81" y2="51" style="stroke: black;"/>
    <line x1="45" y1="57" x2="81" y2="62" style="stroke: black;"/>
  </g>
  <use xlink:href="#whiskers" transform="scale(-1 1) translate(-84 0)"/>
  <!-- ears -->
  <polyline points="64.8 37.2, 54 6, 42 27, 30 6, 19.2 37.2"
    style="stroke: black; fill: none;"/>
  <!-- mouth -->
  <polyline points="21 66, 27 72, 57 72, 62 66"
    style="stroke: black; fill: none;"/>
  <path d="M 45 54 L 39 54 A 3 6 0  0 0 45 54"
    style="stroke: black; fill: #ffcccc;"/>
</g>
</defs>

<!-- x axis -->
<g transform="translate(10, 10)" style="fill:black; stroke:none;
  font-family:sans-serif; text-anchor:middle;">
  <rect x="0" y="0" width="45" height="135"
    style="stroke:blue; fill:none;"/>
  <svg preserveAspectRatio="none" viewBox="0 0 90 90"
    width="45" height="135"><use xlink:href="#cat"/></svg>
</g>

<!-- y axis -->

<g transform="translate(60, 10)"  style="fill:black; stroke:none;
  font-family:sans-serif; text-anchor:middle;">
  <rect x="0" y="0" width="135" height="45"
    style="stroke:blue; fill:none;"/>
  <svg preserveAspectRatio="none" viewBox="0 0 90 90"
    width="135" height="45"><use xlink:href="#cat"/></svg>
</g>

</svg>

