<?xml version="1.0" encoding="UTF-8"?>
<!DOCTYPE svg PUBLIC "-//W3C//DTD SVG 1.1//EN"
                      "http://www.w3.org/Graphics/SVG/1.1/DTD/svg11.dtd">
<svg height="150" viewBox="0 0 140 150" width="140">
    <g font-family="sans-serif" font-size="14" transform="translate(10, 15.0)">
        <path d="M3 0h-3v120h3" fill="none" stroke="black"/>
        <text font-size="14" text-anchor="middle" x="10.5" y="13"> 0 </text>
        <text font-size="14" text-anchor="middle" x="10.5" y="37"> 0 </text>
        <text font-size="14" text-anchor="middle" x="10.5" y="61"> 0 </text>
        <text font-size="14" text-anchor="middle" x="10.5" y="85"> 0 </text>
        <text font-size="14" text-anchor="middle" x="10.5" y="109"> 0 </text>
        <text font-size="14" text-anchor="middle" x="29.5" y="13"> 0 </text>
        <text font-size="14" text-anchor="middle" x="29.5" y="37"> 0 </text>
        <text font-size="14" text-anchor="middle" x="29.5" y="61"> 0 </text>
        <text font-size="14" text-anchor="middle" x="29.5" y="85"> 0 </text>
        <text font-size="14" text-anchor="middle" x="29.5" y="109"> 0 </text>
        <text font-size="14" text-anchor="middle" x="48.5" y="13"> 0 </text>
        <text font-size="14" text-anchor="middle" x="48.5" y="37"> 0 </text>
        <text font-size="14" text-anchor="middle" x="48.5" y="61"> 0 </text>
        <text font-size="14" text-anchor="middle" x="48.5" y="85"> 0 </text>
        <text font-size="14" text-anchor="middle" x="48.5" y="109"> 0 </text>
        <text font-size="14" text-anchor="middle" x="74.0" y="13"> 0 </text>
        <text font-size="14" text-anchor="middle" x="74.0" y="37"> 0.9 </text>
        <text font-size="14" text-anchor="middle" x="74.0" y="61"> 0.9 </text>
        <text font-size="14" text-anchor="middle" x="74.0" y="85"> 1 </text>
        <text font-size="14" text-anchor="middle" x="74.0" y="109"> 0 </text>
        <text font-size="14" text-anchor="middle" x="99.5" y="13"> 0 </text>
        <text font-size="14" text-anchor="middle" x="99.5" y="37"> 0 </text>
        <text font-size="14" text-anchor="middle" x="99.5" y="61"> 0 </text>
        <text font-size="14" text-anchor="middle" x="99.5" y="85"> 0 </text>
        <text font-size="14" text-anchor="middle" x="99.5" y="109"> 1 </text>
        <path d="M109 0h3v120h-3" fill="none" stroke="black"/>
    </g>
</svg>
