<?xml version="1.0" encoding="UTF-8"?>
<!DOCTYPE svg PUBLIC "-//W3C//DTD SVG 1.1//EN"
                      "http://www.w3.org/Graphics/SVG/1.1/DTD/svg11.dtd">
<svg height="102" viewBox="0 0 417 102" width="417">
    <g font-family="sans-serif" font-size="14" transform="translate(10, 27.0)">
        <path d="M3 0h-3v48h3" fill="none" stroke="black"/>
        <text font-size="14" text-anchor="middle" x="11.5" y="14"> 1 </text>
        <text fill="gray" font-size="14" text-anchor="middle" x="11.5"
            y="38"> 4 </text>
        <text font-size="14" text-anchor="middle" x="32.5" y="14"> 2 </text>
        <text fill="gray" font-size="14" text-anchor="middle" x="32.5"
            y="38"> 5 </text>
        <text font-size="14" text-anchor="middle" x="53.5" y="14"> 3 </text>
        <text fill="gray" font-size="14" text-anchor="middle" x="53.5"
            y="38"> 6 </text>
        <path d="M64 0h3v48h-3" fill="none" stroke="black"/>
    </g>
    <text font-size="14" transform="translate(83, 58.0)">•</text>
    <g font-family="sans-serif" font-size="14" transform="translate(94, 15.0)">
        <path d="M3 0h-3v72h3" fill="none" stroke="black"/>
        <text font-size="14" text-anchor="middle" x="11.5" y="14"> 7 </text>
        <text font-size="14" text-anchor="middle" x="11.5" y="38"> 8 </text>
        <text font-size="14" text-anchor="middle" x="11.5" y="62"> 9 </text>
        <text fill="gray" font-size="14" text-anchor="middle" x="37.0"
            y="14"> 10 </text>
        <text fill="gray" font-size="14" text-anchor="middle" x="37.0"
            y="38"> 11 </text>
        <text fill="gray" font-size="14" text-anchor="middle" x="37.0"
            y="62"> 12 </text>
        <path d="M52 0h3v72h-3" fill="none" stroke="black"/>
    </g>
    <text font-size="14" transform="translate(155, 58.0)">=</text>
    <g font-family="sans-serif" font-size="14" transform="translate(169, 27.0)">
        <path d="M3 0h-3v48h3" fill="none" stroke="black"/>
        <text font-size="14" text-anchor="middle" x="63.5" y="14"> 1·7 +
            2·8 + 3·9 </text>
        <text fill="gray" font-size="14" text-anchor="middle" x="63.5"
            y="38"> - </text>
        <text fill="gray" font-size="14" text-anchor="middle" x="136.5"
            y="14"> - </text>
        <text fill="gray" font-size="14" text-anchor="middle" x="136.5"
            y="38"> - </text>
        <path d="M147 0h3v48h-3" fill="none" stroke="black"/>
    </g>
    <text font-size="14" transform="translate(325, 58.0)">=</text>
    <g font-family="sans-serif" font-size="14" transform="translate(339, 27.0)">
        <path d="M3 0h-3v48h3" fill="none" stroke="black"/>
        <text font-size="14" text-anchor="middle" x="16.0" y="14"> 50 </text>
        <text fill="gray" font-size="14" text-anchor="middle" x="16.0"
            y="38"> - </text>
        <text fill="gray" font-size="14" text-anchor="middle" x="44.0"
            y="14">  - </text>
        <text fill="gray" font-size="14" text-anchor="middle" x="44.0"
            y="38"> - </text>
        <path d="M57 0h3v48h-3" fill="none" stroke="black"/>
    </g>
</svg>
