<?xml version="1.0" encoding="UTF-8"?>
<!DOCTYPE svg PUBLIC "-//W3C//DTD SVG 1.1//EN"
                      "http://www.w3.org/Graphics/SVG/1.1/DTD/svg11.dtd">
<svg height="102" viewBox="0 0 410 102" width="410">
    <g font-family="sans-serif" font-size="14" transform="translate(10, 15.0)">
        <path d="M3 0h-3v72h3" fill="none" stroke="black"/>
        <text font-size="14" text-anchor="middle" x="28.5" y="14">
            cos(a) </text>
        <text font-size="14" text-anchor="middle" x="28.5" y="38">
            sin(a) </text>
        <text font-size="14" text-anchor="middle" x="28.5" y="62"> 0 </text>
        <text font-size="14" text-anchor="middle" x="86.5" y="14">
            -sin(a) </text>
        <text font-size="14" text-anchor="middle" x="86.5" y="38">
            cos(a) </text>
        <text font-size="14" text-anchor="middle" x="86.5" y="62"> 0 </text>
        <text font-size="14" text-anchor="middle" x="127.5" y="14"> 0 </text>
        <text font-size="14" text-anchor="middle" x="127.5" y="38"> 0 </text>
        <text font-size="14" text-anchor="middle" x="127.5" y="62"> 1 </text>
        <path d="M138 0h3v72h-3" fill="none" stroke="black"/>
    </g>
    <text font-size="14" transform="translate(157, 58.0)"/>
    <g font-family="sans-serif" font-size="14" transform="translate(164, 15.0)">
        <path d="M3 0h-3v72h3" fill="none" stroke="black"/>
        <text font-size="14" text-anchor="middle" x="11.5" y="14"> 1 </text>
        <text font-size="14" text-anchor="middle" x="11.5" y="38"> 0 </text>
        <text font-size="14" text-anchor="middle" x="11.5" y="62"> 0 </text>
        <text font-size="14" text-anchor="middle" x="53.0" y="14">
            tan(ax) </text>
        <text font-size="14" text-anchor="middle" x="53.0" y="38"> 1 </text>
        <text font-size="14" text-anchor="middle" x="53.0" y="62"> 0 </text>
        <text font-size="14" text-anchor="middle" x="94.5" y="14"> 0 </text>
        <text font-size="14" text-anchor="middle" x="94.5" y="38"> 0 </text>
        <text font-size="14" text-anchor="middle" x="94.5" y="62"> 1 </text>
        <path d="M105 0h3v72h-3" fill="none" stroke="black"/>
    </g>
    <text font-size="14" transform="translate(278, 58.0)"/>
    <g font-family="sans-serif" font-size="14" transform="translate(285, 15.0)">
        <path d="M3 0h-3v72h3" fill="none" stroke="black"/>
        <text font-size="14" text-anchor="middle" x="31.5" y="14"> 1 </text>
        <text font-size="14" text-anchor="middle" x="31.5" y="38">
            tan(ay) </text>
        <text font-size="14" text-anchor="middle" x="31.5" y="62"> 0 </text>
        <text font-size="14" text-anchor="middle" x="72.5" y="14"> 0 </text>
        <text font-size="14" text-anchor="middle" x="72.5" y="38"> 1 </text>
        <text font-size="14" text-anchor="middle" x="72.5" y="62"> 0 </text>
        <text font-size="14" text-anchor="middle" x="93.5" y="14"> 0 </text>
        <text font-size="14" text-anchor="middle" x="93.5" y="38"> 0 </text>
        <text font-size="14" text-anchor="middle" x="93.5" y="62"> 1 </text>
        <path d="M104 0h3v72h-3" fill="none" stroke="black"/>
    </g>
</svg>
