<?xml version="1.0" encoding="UTF-8"?>
<!DOCTYPE svg PUBLIC "-//W3C//DTD SVG 1.1//EN"
                      "http://www.w3.org/Graphics/SVG/1.1/DTD/svg11.dtd">
<svg height="102" viewBox="0 0 395 102" width="395">
    <g font-family="sans-serif" font-size="14" transform="translate(10, 15.0)">
        <path d="M3 0h-3v72h3" fill="none" stroke="black"/>
        <text font-size="14" text-anchor="middle" x="10.5" y="14">sx</text>
        <text font-size="14" text-anchor="middle" x="10.5" y="38">0</text>
        <text font-size="14" text-anchor="middle" x="10.5" y="62">0</text>
        <text font-size="14" text-anchor="middle" x="29.0" y="14">0</text>
        <text font-size="14" text-anchor="middle" x="29.0" y="38">sy</text>
        <text font-size="14" text-anchor="middle" x="29.0" y="62">0</text>
        <text font-size="14" text-anchor="middle" x="46.5" y="14">tx</text>
        <text font-size="14" text-anchor="middle" x="46.5" y="38">ty</text>
        <text font-size="14" text-anchor="middle" x="46.5" y="62">1</text>
        <path d="M55 0h3v72h-3" fill="none" stroke="black"/>
    </g>
    <text font-size="14" transform="translate(74, 58.0)">•</text>
    <g font-family="sans-serif" font-size="14" transform="translate(85, 15.0)">
        <path d="M3 0h-3v72h3" fill="none" stroke="black"/>
        <text font-size="14" text-anchor="middle" x="11.5" y="14"> 3 </text>
        <text font-size="14" text-anchor="middle" x="11.5" y="38"> 5 </text>
        <text font-size="14" text-anchor="middle" x="11.5" y="62"> 1 </text>
        <path d="M22 0h3v72h-3" fill="none" stroke="black"/>
    </g>
    <text font-size="14" transform="translate(116, 58.0)">=</text>
    <g font-family="sans-serif" font-size="14" transform="translate(130, 15.0)">
        <path d="M3 0h-3v72h3" fill="none" stroke="black"/>
        <text font-size="14" text-anchor="middle" x="70.5" y="14"> sx·3
            + 0·5 + tx·1 </text>
        <text font-size="14" text-anchor="middle" x="70.5" y="38"> 0·3 +
            sy·5 + ty·1 </text>
        <text font-size="14" text-anchor="middle" x="70.5" y="62"> 0·3 +
            0·5 + 1·1 </text>
        <path d="M140 0h3v72h-3" fill="none" stroke="black"/>
    </g>
    <text font-size="14" transform="translate(279, 58.0)">=</text>
    <g font-family="sans-serif" font-size="14" transform="translate(293, 15.0)">
        <path d="M3 0h-3v72h3" fill="none" stroke="black"/>
        <text font-size="14" text-anchor="middle" x="41.0" y="14"> sx·3
            + tx </text>
        <text font-size="14" text-anchor="middle" x="41.0" y="38"> sy·5
            + ty </text>
        <text font-size="14" text-anchor="middle" x="41.0" y="62"> 1 </text>
        <path d="M81 0h3v72h-3" fill="none" stroke="black"/>
    </g>
</svg>
