<?xml version="1.0" encoding="UTF-8"?>
<!DOCTYPE svg PUBLIC "-//W3C//DTD SVG 1.1//EN"
                      "http://www.w3.org/Graphics/SVG/1.1/DTD/svg11.dtd">
<svg height="78" viewBox="0 0 324 78" width="324">
    <g font-family="sans-serif" font-size="14" transform="translate(10, 15.0)">
        <path d="M3 0h-3v48h3" fill="none" stroke="black"/>
        <text font-size="14" text-anchor="middle" x="11.5" y="14"> 3 </text>
        <text font-size="14" text-anchor="middle" x="11.5" y="38"> 0 </text>
        <text font-size="14" text-anchor="middle" x="39.5" y="14"> 0 </text>
        <text font-size="14" text-anchor="middle" x="39.5" y="38"> 1.5 </text>
        <path d="M57 0h3v48h-3" fill="none" stroke="black"/>
    </g>
    <text font-size="14" transform="translate(76, 46.0)">•</text>
    <g font-family="sans-serif" font-size="14" transform="translate(87, 15.0)">
        <path d="M3 0h-3v48h3" fill="none" stroke="black"/>
        <text font-size="14" text-anchor="middle" x="11.5" y="14"> x </text>
        <text font-size="14" text-anchor="middle" x="11.5" y="38"> y </text>
        <path d="M22 0h3v48h-3" fill="none" stroke="black"/>
    </g>
    <text font-size="14" transform="translate(118, 46.0)">=</text>
    <g font-family="sans-serif" font-size="14" transform="translate(132, 15.0)">
        <path d="M3 0h-3v48h3" fill="none" stroke="black"/>
        <text font-size="14" text-anchor="middle" x="52.5" y="14"> 3·x +
            0·y </text>
        <text font-size="14" text-anchor="middle" x="52.5" y="38">  0·x
            + 1.5·y  </text>
        <path d="M104 0h3v48h-3" fill="none" stroke="black"/>
    </g>
    <text font-size="14" transform="translate(245, 46.0)">=</text>
    <g font-family="sans-serif" font-size="14" transform="translate(259, 15.0)">
        <path d="M3 0h-3v48h3" fill="none" stroke="black"/>
        <text font-size="14" text-anchor="middle" x="22.5" y="14"> 3x </text>
        <text font-size="14" text-anchor="middle" x="22.5" y="38"> 1.5y </text>
        <path d="M44 0h3v48h-3" fill="none" stroke="black"/>
    </g>
</svg>
