<!DOCTYPE svg PUBLIC "-//W3C//DTD SVG 1.0//EN"
    "http://www.w3.org/TR/2001/REC-SVG-20010904/DTD/svg10.dtd">

<svg width="300" height="243"
    xmlns="http://www.w3.org/2000/svg"
  viewBox="-0.904181360000000E+02 0.416960890000000E+02 8.005171 6.494886">
<title>Map constructed from michigan.dat</title>
<g style="fill: none; stroke: black; stroke-width: 0.0266839033333333">
<polyline id="poly1" points="
	-88.806 41.913 -88.832 41.921 -88.852 41.921 -88.899 41.933 
	-88.918 41.941 -88.923 41.949 -88.962 41.963 -88.968 41.977 
	-88.968 41.985 -88.957 41.991 -88.942 41.991 -88.899 41.984 
	-88.898 41.986 -88.911 41.995 -88.998 42.019 -89.022 42.028 
	-89.044 42.031 -89.056 42.034 -89.107 42.051 -89.124 42.058 
	-89.157 42.063 -89.19 42.055 -89.192 42.053 -89.192 42.046 
	-89.201 42.036 -89.234 42.035 -89.235 42.033 -89.234 42.031 
	-89.228 42.029 -89.246 42.016 -89.25 42.016 -89.255 42.01 
	-89.247 41.998 -89.226 41.991 -89.22 41.986 -89.221 41.978 
	-89.214 41.973 -89.179 41.952 -89.095 41.919 -89.018 41.894 
	-88.994 41.884 -88.94 41.867 -88.931 41.865 -88.927 41.867 
	-88.915 41.866 -88.895 41.858 -88.896 41.855 -88.893 41.852 
	-88.835 41.83 -88.816 41.83 -88.81 41.831 -88.806 41.83 
	-88.787 41.824 -88.772 41.816 -88.771 41.807 -88.764 41.801 
	-88.744 41.794 -88.728 41.785 -88.705 41.776 -88.695 41.776 
	-88.684 41.771 -88.675 41.766 -88.676 41.762 -88.674 41.759 
	-88.656 41.747 -88.614 41.732 -88.578 41.724 -88.547 41.712 
	-88.524 41.721 -88.501 41.718 -88.491 41.711 -88.482 41.707 
	-88.459 41.703 -88.447 41.704 -88.422 41.696 -88.418 41.706 
	-88.419 41.716 -88.427 41.72 -88.449 41.723 -88.459 41.728 
	-88.469 41.734 -88.485 41.749 -88.511 41.765 -88.566 41.793 
	-88.578 41.802 -88.578 41.809 -88.575 41.811 -88.573 41.818 
	-88.575 41.822 -88.579 41.828 -88.67 41.875 -88.718 41.891 
	-88.772 41.905 -88.791 41.908 -88.806 41.913 " />
<polyline id="poly2" points="
	-90.418 43.32 -90.394 43.309 -90.365 43.294 -90.348 43.286 
	-90.347 43.286 -90.327 43.279 -90.324 43.28 -90.306 43.284 
	-90.265 43.268 -90.253 43.266 -90.25 43.265 -90.237 43.262 
	-90.164 43.241 -90.1 43.231 -90.045 43.218 -90.028 43.212 
	-89.996 43.193 -89.985 43.183 -89.984 43.183 -89.973 43.176 
	-89.97 43.175 -89.957 43.17 -89.937 43.158 -89.925 43.151 
	-89.918 43.146 -89.911 43.14 -89.907 43.137 -89.903 43.133 
	-89.893 43.125 -89.892 43.123 -89.888 43.121 -89.888 43.12 
	-89.862 43.101 -89.85 43.092 -89.849 43.091 -89.848 43.091 
	-89.846 43.09 -89.831 43.083 -89.802 43.072 -89.792 43.069 
	-89.79 43.068 -89.79 43.068 -89.774 43.065 -89.76 43.063 
	-89.72 43.056 -89.707 43.055 -89.673 43.053 -89.66 43.056 
	-89.642 43.061 -89.637 43.065 -89.634 43.067 -89.619 43.068 
	-89.599 43.062 -89.588 43.06 -89.569 43.055 -89.565 43.054 
	-89.541 43.051 -89.535 43.051 -89.524 43.048 -89.517 43.046 
	-89.513 43.045 -89.499 43.045 -89.493 43.047 -89.491 43.048 
	-89.471 43.049 -89.468 43.049 -89.439 43.047 -89.438 43.047 
	-89.437 43.047 -89.435 43.047 -89.415 43.043 -89.372 43.029 
	-89.37 43.029 -89.345 43.019 -89.335 43.016 -89.335 43.015 
	-89.324 43.012 -89.324 43.011 -89.318 43.009 -89.307 43.005 
	-89.292 42.999 -89.287 42.998 -89.284 42.996 -89.276 42.993 
	-89.249 42.983 -89.229 42.975 -89.227 42.974 -89.226 42.972 
	-89.201 42.955 -89.197 42.951 -89.185 42.939 -89.168 42.921 
	-89.167 42.921 -89.142 42.902 -89.128 42.894 -89.123 42.893 
	-89.122 42.893 -89.118 42.892 -89.115 42.895 -89.113 42.897 
	-89.106 42.9 -89.091 42.901 -89.086 42.901 -89.084 42.901 
	-89.08 42.9 -89.065 42.898 -89.063 42.898 -89.061 42.897 
	-89.06 42.897 -89.058 42.896 -89.049 42.892 -89.039 42.887 
	-89.028 42.885 -89.027 42.887 -89.023 42.891 -89.022 42.891 
	-89.022 42.891 -88.998 42.891 -88.987 42.889 -88.972 42.884 
	-88.959 42.878 -88.944 42.867 -88.944 42.866 -88.943 42.866 
	-88.933 42.854 -88.924 42.845 -88.924 42.844 -88.924 42.844 
	-88.914 42.828 -88.914 42.827 -88.913 42.826 -88.912 42.822 
	-88.908 42.812 -88.903 42.8 -88.9 42.797 -88.889 42.786 
	-88.872 42.779 -88.855 42.772 -88.848 42.771 -88.847 42.771 
	-88.825 42.754 -88.814 42.745 -88.789 42.736 -88.778 42.736 
	-88.767 42.732 -88.765 42.731 -88.764 42.731 -88.763 42.73 
	-88.75 42.719 -88.73 42.702 -88.729 42.701 -88.699 42.682 
	-88.672 42.667 -88.656 42.661 -88.647 42.66 -88.64 42.66 
	-88.637 42.659 -88.634 42.658 -88.628 42.656 -88.625 42.655 
	-88.623 42.654 -88.609 42.648 -88.585 42.644 -88.584 42.644 
	-88.584 42.644 -88.573 42.641 -88.552 42.626 -88.528 42.611 
	-88.512 42.601 -88.51 42.6 -88.5 42.593 -88.499 42.592 
	-88.486 42.58 -88.478 42.574 -88.477 42.573 -88.477 42.573 
	-88.477 42.573 -88.471 42.561 -88.47 42.559 -88.47 42.559 
	-88.468 42.557 -88.461 42.549 -88.459 42.547 -88.458 42.546 
	-88.458 42.546 -88.432 42.526 -88.418 42.515 -88.397 42.506 
	-88.39 42.502 -88.389 42.502 -88.38 42.5 -88.377 42.499 
	-88.36 42.494 -88.324 42.483 -88.303 42.474 -88.299 42.472 
	-88.285 42.464 -88.274 42.462 -88.239 42.457 -88.238 42.457 
	-88.237 42.456 -88.227 42.451 -88.218 42.445 -88.216 42.441 
	-88.217 42.438 -88.217 42.438 -88.208 42.436 -88.182 42.429 
	-88.181 42.429 -88.18 42.429 -88.164 42.428 -88.15 42.426 
	-88.139 42.424 -88.085 42.418 -88.08 42.418 -88.076 42.419 
	-88.051 42.417 -88.049 42.417 -88.048 42.417 -88.048 42.412 
	-88.04 42.411 -88.04 42.411 -88.035 42.41 -88.027 42.41 
	-87.998 42.408 -87.979 42.407 -87.978 42.407 -87.956 42.407 
	-87.955 42.407 -87.929 42.408 -87.919 42.408 -87.902 42.41 
	-87.898 42.412 -87.816 42.415 -87.801 42.413 -87.756 42.426 
	-87.73 42.437 -87.715 42.447 -87.71 42.48 -87.712 42.485 
	-87.721 42.486 -87.742 42.481 -87.751 42.481 -87.759 42.484 
	-87.765 42.488 -87.8 42.494 -87.815 42.502 -87.827 42.5 
	-87.834 42.496 -87.848 42.492 -87.856 42.491 -87.882 42.491 
	-87.941 42.496 -87.957 42.499 -87.965 42.512 -87.965 42.518 
	-87.962 42.524 -87.954 42.53 -87.947 42.531 -87.938 42.54 
	-87.938 42.544 -87.943 42.551 -87.946 42.552 -87.958 42.552 
	-87.968 42.554 -87.989 42.564 -88.016 42.58 -88.054 42.588 
	-88.06 42.591 -88.071 42.6 -88.096 42.625 -88.107 42.627 
	-88.108 42.627 -88.117 42.631 -88.131 42.647 -88.163 42.67 
	-88.194 42.677 -88.204 42.676 -88.212 42.677 -88.227 42.687 
	-88.227 42.687 -88.228 42.687 -88.228 42.688 -88.229 42.688 
	-88.236 42.697 -88.241 42.711 -88.242 42.712 -88.242 42.715 
	-88.242 42.715 -88.242 42.728 -88.239 42.735 -88.236 42.737 
	-88.234 42.737 -88.231 42.737 -88.232 42.741 -88.239 42.747 
	-88.247 42.751 -88.249 42.75 -88.25 42.746 -88.255 42.743 
	-88.262 42.741 -88.272 42.743 -88.281 42.748 -88.289 42.757 
	-88.289 42.76 -88.287 42.761 -88.287 42.766 -88.288 42.772 
	-88.297 42.788 -88.34 42.806 -88.346 42.807 -88.349 42.81 
	-88.353 42.818 -88.353 42.829 -88.356 42.839 -88.359 42.847 
	-88.367 42.867 -88.367 42.868 -88.368 42.868 -88.373 42.874 
	-88.374 42.875 -88.377 42.877 -88.385 42.882 -88.404 42.903 
	-88.411 42.909 -88.417 42.91 -88.434 42.913 -88.443 42.914 
	-88.448 42.94 -88.45 42.946 -88.45 42.948 -88.453 42.956 
	-88.455 42.963 -88.473 42.997 -88.475 43.001 -88.476 43.005 
	-88.477 43.02 -88.477 43.035 -88.477 43.035 -88.477 43.036 
	-88.479 43.041 -88.483 43.053 -88.483 43.055 -88.483 43.055 
	-88.483 43.056 -88.482 43.059 -88.482 43.06 -88.473 43.08 
	-88.469 43.087 -88.462 43.1 -88.446 43.1 -88.438 43.1 
	-88.433 43.093 -88.415 43.075 -88.381 43.048 -88.382 43.042 
	-88.381 43.04 -88.381 43.039 -88.38 43.036 -88.38 43.035 
	-88.38 43.034 -88.378 43.032 -88.375 43.029 -88.372 43.028 
	-88.368 43.029 -88.36 43.03 -88.352 43.03 -88.351 43.03 
	-88.351 43.029 -88.348 43.027 -88.332 43.014 -88.31 42.997 
	-88.298 42.99 -88.281 42.98 -88.27 42.975 -88.261 42.971 
	-88.257 42.968 -88.244 42.957 -88.235 42.953 -88.194 42.938 
	-88.178 42.932 -88.167 42.928 -88.155 42.921 -88.143 42.92 
	-88.141 42.921 -88.132 42.924 -88.135 42.927 -88.147 42.94 
	-88.149 42.942 -88.15 42.943 -88.151 42.944 -88.187 42.968 
	-88.182 42.973 -88.175 42.982 -88.161 42.982 -88.126 42.977 
	-88.101 42.969 -88.081 42.966 -88.065 42.968 -88.044 42.974 
	-88.032 42.978 -88.004 42.98 -88.004 42.98 -87.986 42.981 
	-87.982 42.98 -87.973 42.979 -87.956 42.978 -87.912 42.977 
	-87.9 42.977 -87.887 42.986 -87.874 42.994 -87.846 43.003 
	-87.841 43.002 -87.827 42.997 -87.816 42.995 -87.813 42.998 
	-87.813 42.999 -87.793 43.006 -87.783 43.007 -87.782 43.007 
	-87.781 43.007 -87.776 43.01 -87.776 43.014 -87.778 43.016 
	-87.777 43.019 -87.776 43.02 -87.776 43.02 -87.766 43.025 
	-87.765 43.025 -87.765 43.025 -87.755 43.026 -87.754 43.025 
	-87.746 43.021 -87.741 43.021 -87.735 43.036 -87.734 43.036 
	-87.734 43.036 -87.734 43.037 -87.735 43.037 -87.736 43.039 
	-87.734 43.05 -87.731 43.055 -87.731 43.055 -87.731 43.056 
	-87.727 43.059 -87.726 43.059 -87.713 43.061 -87.694 43.059 
	-87.685 43.054 -87.687 43.047 -87.687 43.045 -87.68 43.044 
	-87.68 43.044 -87.68 43.044 -87.674 43.05 -87.673 43.059 
	-87.673 43.059 -87.674 43.063 -87.672 43.066 -87.663 43.071 
	-87.662 43.071 -87.66 43.072 -87.652 43.074 -87.651 43.074 
	-87.641 43.073 -87.633 43.074 -87.628 43.081 -87.611 43.095 
	-87.607 43.098 -87.607 43.099 -87.595 43.104 -87.594 43.109 
	-87.594 43.11 -87.593 43.118 -87.59 43.134 -87.583 43.155 
	-87.582 43.156 -87.582 43.157 -87.573 43.166 -87.557 43.176 
	-87.551 43.18 -87.545 43.184 -87.533 43.192 -87.525 43.197 
	-87.523 43.198 -87.523 43.201 -87.524 43.208 -87.524 43.209 
	-87.518 43.217 -87.507 43.233 -87.503 43.239 -87.492 43.244 
	-87.471 43.25 -87.471 43.25 -87.47 43.25 -87.467 43.251 
	-87.466 43.255 -87.467 43.26 -87.464 43.272 -87.451 43.281 
	-87.442 43.284 -87.411 43.285 -87.404 43.29 -87.403 43.291 
	-87.383 43.293 -87.381 43.307 -87.392 43.314 -87.392 43.316 
	-87.384 43.33 -87.382 43.333 -87.377 43.337 -87.376 43.339 
	-87.375 43.339 -87.378 43.34 -87.38 43.341 -87.389 43.344 
	-87.39 43.344 -87.391 43.347 -87.392 43.35 -87.393 43.352 
	-87.393 43.353 -87.393 43.354 -87.393 43.354 -87.393 43.354 
	-87.39 43.36 -87.389 43.362 -87.383 43.367 -87.381 43.369 
	-87.381 43.369 -87.38 43.37 -87.368 43.378 -87.366 43.379 
	-87.365 43.38 -87.364 43.38 -87.364 43.38 -87.364 43.38 
	-87.351 43.386 -87.351 43.386 -87.31 43.395 -87.258 43.398 
	-87.202 43.396 -87.175 43.389 -87.143 43.391 -87.127 43.393 
	-87.116 43.391 -87.116 43.391 -87.107 43.39 -87.098 43.383 
	-87.077 43.371 -87.046 43.367 -87.029 43.361 -87.017 43.353 
	-87.008 43.354 -86.976 43.36 -86.964 43.37 -86.962 43.377 
	-86.952 43.393 -86.947 43.402 -86.946 43.402 -86.946 43.407 
	-86.946 43.408 -86.949 43.41 -86.949 43.41 -86.949 43.411 
	-86.947 43.415 -86.927 43.422 -86.913 43.421 -86.903 43.42 
	-86.889 43.428 -86.883 43.436 -86.883 43.436 -86.883 43.438 
	-86.883 43.445 -86.883 43.445 -86.881 43.446 -86.876 43.449 
	-86.875 43.449 -86.871 43.45 -86.85 43.452 -86.837 43.452 
	-86.816 43.449 -86.81 43.437 -86.808 43.426 -86.803 43.42 
	-86.787 43.409 -86.768 43.407 -86.75 43.407 -86.735 43.411 
	-86.731 43.415 -86.73 43.419 -86.71 43.442 -86.703 43.447 
	-86.698 43.448 -86.698 43.448 -86.686 43.432 -86.688 43.423 
	-86.686 43.415 -86.683 43.388 -86.696 43.383 -86.701 43.375 
	-86.709 43.343 -86.695 43.332 -86.678 43.326 -86.675 43.33 
	-86.67 43.33 -86.656 43.328 -86.652 43.326 -86.627 43.353 
	-86.629 43.368 -86.632 43.378 -86.634 43.382 -86.641 43.386 
	-86.645 43.395 -86.646 43.401 -86.636 43.408 -86.627 43.409 
	-86.62 43.403 -86.618 43.397 -86.612 43.393 -86.609 43.394 
	-86.606 43.408 -86.609 43.416 -86.598 43.42 -86.597 43.42 
	-86.586 43.423 -86.557 43.399 -86.524 43.381 -86.495 43.362 
	-86.494 43.361 -86.484 43.351 -86.481 43.344 -86.469 43.335 
	-86.459 43.335 -86.444 43.338 -86.437 43.338 -86.39 43.323 
	-86.365 43.314 -86.349 43.309 -86.188 43.233 -86.161 43.217 
	-86.138 43.214 -86.119 43.229 -86.112 43.232 -86.099 43.232 
	-86.074 43.229 -86.036 43.219 -85.995 43.213 -85.953 43.21 
	-85.924 43.202 -85.877 43.196 -85.864 43.196 -85.841 43.198 
	-85.794 43.205 -85.76 43.208 -85.75 43.209 -85.745 43.209 
	-85.714 43.209 -85.668 43.206 -85.647 43.207 -85.624 43.208 
	-85.595 43.211 -85.587 43.212 -85.542 43.212 -85.51 43.211 
	-85.509 43.211 -85.509 43.211 -85.482 43.206 -85.369 43.173 
	-85.289 43.142 -85.288 43.142 -85.256 43.133 -85.237 43.131 
	-85.237 43.131 -85.173 43.123 -85.063 43.129 -85.036 43.126 
	-85.009 43.117 -84.989 43.114 -84.964 43.114 -84.954 43.115 
	-84.951 43.117 -84.987 43.141 -85.007 43.158 -85.02 43.174 
	-85.027 43.189 -85.03 43.202 -85.028 43.211 -85.035 43.262 
	-85.037 43.286 -85.035 43.305 -85.031 43.318 -85.029 43.332 
	-85.027 43.333 -85.025 43.34 -85.027 43.344 -85.045 43.349 
	-85.052 43.354 -85.056 43.36 -85.054 43.372 -85.049 43.383 
	-85.033 43.399 -85.025 43.404 -85.015 43.407 -84.989 43.409 
	-84.969 43.41 -84.955 43.406 -84.947 43.399 -84.937 43.397 
	-84.934 43.406 -84.921 43.417 -84.916 43.418 -84.915 43.419 
	-84.905 43.42 -84.893 43.421 -84.875 43.42 -84.861 43.417 
	-84.849 43.426 -84.843 43.438 -84.829 43.442 -84.8 43.44 
	-84.769 43.433 -84.723 43.418 -84.689 43.403 -84.678 43.399 
	-84.653 43.404 -84.631 43.402 -84.616 43.415 -84.612 43.421 
	-84.607 43.43 -84.594 43.44 -84.584 43.447 -84.573 43.459 
	-84.572 43.459 -84.552 43.468 -84.551 43.468 -84.55 43.468 
	-84.503 43.447 -84.493 43.446 -84.489 43.449 -84.479 43.454 
	-84.471 43.452 -84.462 43.446 -84.455 43.433 -84.455 43.424 
	-84.462 43.419 -84.463 43.419 -84.463 43.419 -84.445 43.398 
	-84.42 43.385 -84.401 43.387 -84.401 43.387 -84.394 43.387 
	-84.393 43.387 -84.388 43.384 -84.375 43.378 -84.373 43.377 
	-84.343 43.379 -84.337 43.381 -84.329 43.385 -84.329 43.385 
	-84.329 43.385 -84.325 43.387 -84.306 43.391 -84.306 43.391 
	-84.293 43.394 -84.275 43.394 -84.265 43.392 -84.264 43.392 
	-84.254 43.386 -84.226 43.353 -84.193 43.347 -84.177 43.36 
	-84.166 43.36 -84.153 43.358 -84.146 43.355 -84.139 43.354 
	-84.128 43.356 -84.123 43.366 -84.117 43.369 -84.111 43.382 
	-84.125 43.416 -84.146 43.468 -84.138 43.514 -84.119 43.55 
	-84.106 43.565 -84.119 43.571 -84.119 43.572 -84.115 43.618 
	-84.097 43.63 -84.108 43.645 -84.108 43.645 -84.118 43.653 
	-84.125 43.654 -84.134 43.654 -84.145 43.662 -84.147 43.662 
	-84.149 43.663 -84.15 43.663 -84.151 43.662 -84.152 43.662 
	-84.152 43.66 -84.152 43.659 -84.159 43.653 -84.175 43.652 
	-84.176 43.652 -84.181 43.651 -84.182 43.651 -84.188 43.652 
	-84.219 43.655 -84.233 43.663 -84.249 43.68 -84.245 43.694 
	-84.247 43.707 -84.251 43.711 -84.238 43.716 -84.229 43.72 
	-84.221 43.723 -84.221 43.724 -84.217 43.723 -84.196 43.72 
	-84.19 43.715 -84.177 43.703 -84.171 43.705 -84.169 43.705 
	-84.169 43.705 -84.149 43.706 -84.125 43.706 -84.122 43.708 
	-84.114 43.712 -84.113 43.718 -84.106 43.728 -84.1 43.736 
	-84.095 43.739 -84.089 43.74 -84.06 43.74 -84.026 43.755 
	-84.031 43.763 -84.038 43.761 -84.051 43.767 -84.061 43.773 
	-84.069 43.783 -84.072 43.79 -84.071 43.794 -84.066 43.799 
	-84.051 43.807 -84.043 43.815 -84.027 43.832 -84.006 43.842 
	-83.989 43.854 -83.963 43.859 -83.951 43.858 -83.943 43.855 
	-83.939 43.857 -83.935 43.866 -83.931 43.869 -83.926 43.87 
	-83.908 43.875 -83.9 43.888 -83.88 43.892 -83.873 43.893 
	-83.868 43.891 -83.845 43.861 -83.83 43.864 -83.818 43.884 
	-83.815 43.885 -83.799 43.889 -83.794 43.891 -83.776 43.882 
	-83.771 43.877 -83.765 43.868 -83.765 43.855 -83.773 43.835 
	-83.796 43.83 -83.812 43.813 -83.824 43.783 -83.815 43.778 
	-83.812 43.778 -83.792 43.785 -83.779 43.793 -83.771 43.796 
	-83.755 43.794 -83.728 43.796 -83.723 43.793 -83.719 43.786 
	-83.703 43.783 -83.661 43.786 -83.634 43.783 -83.625 43.784 
	-83.615 43.791 -83.598 43.796 -83.581 43.797 -83.576 43.803 
	-83.572 43.812 -83.572 43.817 -83.565 43.825 -83.554 43.828 
	-83.547 43.839 -83.543 43.849 -83.54 43.865 -83.532 43.875 
	-83.494 43.887 -83.488 43.887 -83.48 43.89 -83.473 43.898 
	-83.473 43.902 -83.481 43.915 -83.488 43.918 -83.51 43.957 
	-83.517 43.963 -83.526 43.968 -83.561 43.974 -83.583 43.971 
	-83.632 43.954 -83.657 43.941 -83.687 43.951 -83.698 43.952 
	-83.719 43.952 -83.732 43.949 -83.742 43.949 -83.766 43.951 
	-83.768 43.954 -83.786 43.953 -83.801 43.949 -83.803 43.943 
	-83.808 43.941 -83.822 43.943 -83.827 43.945 -83.835 43.945 
	-83.84 43.934 -83.846 43.933 -83.864 43.927 -83.879 43.92 
	-83.881 43.918 -83.886 43.919 -83.91 43.921 -83.921 43.928 
	-83.926 43.927 -83.952 43.921 -83.985 43.919 -83.996 43.925 
	-84.017 43.928 -84.075 43.917 -84.08 43.916 -84.08 43.916 
	-84.09 43.919 -84.091 43.919 -84.105 43.914 -84.107 43.909 
	-84.111 43.908 -84.113 43.908 -84.114 43.908 -84.139 43.911 
	-84.14 43.911 -84.169 43.92 -84.172 43.92 -84.178 43.917 
	-84.202 43.918 -84.238 43.919 -84.254 43.93 -84.261 43.93 
	-84.266 43.93 -84.282 43.93 -84.317 43.93 -84.33 43.93 
	-84.341 43.938 -84.345 43.94 -84.353 43.945 -84.356 43.946 
	-84.376 43.955 -84.409 43.938 -84.428 43.928 -84.436 43.915 
	-84.436 43.915 -84.437 43.913 -84.443 43.909 -84.463 43.918 
	-84.472 43.913 -84.48 43.909 -84.483 43.904 -84.482 43.901 
	-84.484 43.898 -84.488 43.898 -84.488 43.898 -84.507 43.895 
	-84.514 43.899 -84.514 43.915 -84.525 43.918 -84.532 43.917 
	-84.534 43.914 -84.534 43.908 -84.53 43.895 -84.533 43.881 
	-84.54 43.867 -84.544 43.864 -84.544 43.864 -84.562 43.855 
	-84.563 43.854 -84.581 43.856 -84.586 43.86 -84.609 43.86 
	-84.612 43.858 -84.63 43.847 -84.647 43.837 -84.654 43.835 
	-84.656 43.834 -84.666 43.836 -84.674 43.84 -84.675 43.841 
	-84.676 43.841 -84.687 43.852 -84.692 43.86 -84.692 43.87 
	-84.692 43.872 -84.688 43.894 -84.686 43.907 -84.684 43.909 
	-84.685 43.913 -84.687 43.915 -84.687 43.915 -84.688 43.915 
	-84.695 43.915 -84.703 43.916 -84.723 43.919 -84.73 43.925 
	-84.738 43.941 -84.739 43.945 -84.733 43.952 -84.733 43.954 
	-84.732 43.954 -84.718 43.959 -84.713 43.966 -84.713 43.971 
	-84.724 43.976 -84.734 43.98 -84.73 43.989 -84.73 43.989 
	-84.729 43.991 -84.722 44.009 -84.721 44.013 -84.715 44.021 
	-84.709 44.026 -84.701 44.033 -84.702 44.036 -84.705 44.037 
	-84.706 44.038 -84.708 44.038 -84.713 44.038 -84.717 44.038 
	-84.72 44.038 -84.722 44.04 -84.724 44.045 -84.725 44.05 
	-84.746 44.051 -84.746 44.051 -84.752 44.048 -84.754 44.047 
	-84.759 44.044 -84.769 44.04 -84.776 44.036 -84.792 44.028 
	-84.819 44.019 -84.831 44.015 -84.831 44.015 -84.831 44.014 
	-84.838 44.005 -84.837 44 -84.837 43.998 -84.839 43.994 
	-84.84 43.991 -84.842 43.988 -84.852 43.986 -84.859 43.983 
	-84.871 43.978 -84.873 43.977 -84.877 43.973 -84.879 43.971 
	-84.902 43.963 -84.917 43.956 -84.918 43.954 -84.936 43.931 
	-84.936 43.931 -84.937 43.931 -84.973 43.9 -84.99 43.889 
	-85.003 43.88 -85.013 43.876 -85.041 43.868 -85.055 43.863 
	-85.081 43.859 -85.088 43.858 -85.088 43.858 -85.102 43.854 
	-85.112 43.849 -85.116 43.848 -85.13 43.84 -85.14 43.837 
	-85.152 43.836 -85.19 43.839 -85.197 43.842 -85.21 43.834 
	-85.215 43.83 -85.217 43.829 -85.222 43.826 -85.222 43.826 
	-85.222 43.826 -85.223 43.826 -85.237 43.824 -85.248 43.823 
	-85.253 43.822 -85.266 43.821 -85.279 43.817 -85.287 43.814 
	-85.289 43.813 -85.295 43.81 -85.316 43.8 -85.334 43.794 
	-85.335 43.794 -85.337 43.794 -85.343 43.794 -85.356 43.794 
	-85.362 43.798 -85.366 43.8 -85.381 43.805 -85.39 43.795 
	-85.393 43.791 -85.393 43.791 -85.394 43.791 -85.412 43.785 
	-85.426 43.785 -85.441 43.791 -85.441 43.791 -85.442 43.792 
	-85.442 43.793 -85.442 43.793 -85.44 43.794 -85.441 43.795 
	-85.446 43.801 -85.446 43.801 -85.447 43.801 -85.454 43.799 
	-85.478 43.791 -85.48 43.79 -85.498 43.79 -85.5 43.79 
	-85.501 43.79 -85.511 43.792 -85.512 43.792 -85.518 43.794 
	-85.521 43.795 -85.521 43.795 -85.523 43.796 -85.528 43.8 
	-85.532 43.802 -85.534 43.803 -85.54 43.807 -85.559 43.822 
	-85.566 43.827 -85.594 43.849 -85.603 43.856 -85.606 43.861 
	-85.613 43.871 -85.617 43.878 -85.648 43.903 -85.654 43.913 
	-85.654 43.913 -85.663 43.92 -85.689 43.925 -85.697 43.926 
	-85.724 43.921 -85.731 43.921 -85.743 43.921 -85.744 43.921 
	-85.758 43.918 -85.77 43.915 -85.79 43.909 -85.81 43.906 
	-85.817 43.907 -85.825 43.91 -85.832 43.919 -85.842 43.921 
	-85.858 43.919 -85.861 43.918 -85.865 43.918 -85.879 43.918 
	-85.88 43.918 -85.882 43.918 -85.893 43.919 -85.895 43.921 
	-85.909 43.927 -85.922 43.938 -85.925 43.948 -85.926 43.948 
	-85.926 43.951 -85.926 43.954 -85.926 43.954 -85.925 43.955 
	-85.917 43.959 -85.91 43.964 -85.913 43.967 -85.92 43.966 
	-85.921 43.965 -85.937 43.958 -85.954 43.95 -85.991 43.938 
	-85.994 43.937 -85.998 43.936 -86.002 43.935 -86.05 43.924 
	-86.068 43.922 -86.072 43.921 -86.091 43.92 -86.094 43.92 
	-86.094 43.92 -86.116 43.921 -86.123 43.922 -86.136 43.926 
	-86.145 43.929 -86.145 43.929 -86.147 43.931 -86.15 43.932 
	-86.158 43.933 -86.159 43.933 -86.159 43.933 -86.164 43.931 
	-86.175 43.929 -86.196 43.923 -86.207 43.924 -86.208 43.924 
	-86.208 43.924 -86.22 43.928 -86.221 43.929 -86.221 43.929 
	-86.228 43.937 -86.229 43.938 -86.229 43.938 -86.232 43.94 
	-86.233 43.941 -86.234 43.941 -86.235 43.941 -86.245 43.942 
	-86.248 43.942 -86.254 43.938 -86.271 43.943 -86.272 43.943 
	-86.277 43.945 -86.278 43.945 -86.278 43.945 -86.315 43.971 
	-86.316 43.972 -86.324 43.98 -86.325 43.987 -86.326 43.994 
	-86.327 43.998 -86.328 44.006 -86.331 44.026 -86.332 44.035 
	-86.332 44.035 -86.34 44.043 -86.347 44.05 -86.348 44.052 
	-86.349 44.052 -86.355 44.081 -86.354 44.083 -86.351 44.088 
	-86.359 44.093 -86.363 44.097 -86.369 44.097 -86.372 44.097 
	-86.395 44.097 -86.395 44.097 -86.398 44.094 -86.401 44.091 
	-86.401 44.091 -86.402 44.091 -86.415 44.093 -86.424 44.097 
	-86.428 44.101 -86.428 44.101 -86.428 44.102 -86.428 44.104 
	-86.428 44.104 -86.427 44.108 -86.428 44.111 -86.431 44.119 
	-86.439 44.126 -86.453 44.129 -86.455 44.13 -86.459 44.129 
	-86.459 44.129 -86.459 44.129 -86.466 44.127 -86.479 44.129 
	-86.486 44.14 -86.496 44.137 -86.504 44.132 -86.514 44.134 
	-86.518 44.139 -86.523 44.15 -86.525 44.166 -86.533 44.176 
	-86.537 44.178 -86.541 44.178 -86.57 44.17 -86.58 44.175 
	-86.584 44.18 -86.584 44.18 -86.585 44.182 -86.584 44.205 
	-86.587 44.22 -86.593 44.221 -86.611 44.217 -86.62 44.219 
	-86.625 44.223 -86.627 44.227 -86.616 44.266 -86.616 44.28 
	-86.623 44.273 -86.633 44.268 -86.648 44.271 -86.666 44.265 
	-86.687 44.252 -86.688 44.247 -86.695 44.238 -86.708 44.237 
	-86.717 44.218 -86.718 44.209 -86.715 44.203 -86.705 44.196 
	-86.689 44.199 -86.676 44.195 -86.665 44.184 -86.665 44.178 
	-86.669 44.176 -86.671 44.166 -86.662 44.158 -86.647 44.154 
	-86.633 44.139 -86.634 44.123 -86.631 44.105 -86.617 44.103 
	-86.612 44.107 -86.597 44.111 -86.584 44.109 -86.584 44.109 
	-86.583 44.108 -86.576 44.098 -86.581 44.095 -86.581 44.092 
	-86.576 44.085 -86.571 44.081 -86.563 44.082 -86.557 44.078 
	-86.555 44.073 -86.559 44.064 -86.555 44.055 -86.549 44.051 
	-86.545 44.05 -86.538 44.046 -86.529 44.034 -86.528 44.03 
	-86.529 44.012 -86.532 44.004 -86.541 43.996 -86.553 43.99 
	-86.567 43.986 -86.583 43.988 -86.584 43.99 -86.593 44.001 
	-86.603 44.01 -86.613 44.011 -86.625 44.018 -86.633 44.026 
	-86.632 44.043 -86.645 44.053 -86.721 44.041 -86.728 44.038 
	-86.742 44.022 -86.749 44.019 -86.758 44.019 -86.769 44.023 
	-86.782 44.026 -86.784 44.032 -86.782 44.057 -86.777 44.059 
	-86.776 44.062 -86.774 44.065 -86.773 44.075 -86.785 44.092 
	-86.801 44.107 -86.821 44.116 -86.823 44.121 -86.82 44.126 
	-86.821 44.129 -86.838 44.145 -86.84 44.151 -86.841 44.158 
	-86.838 44.164 -86.87 44.176 -86.876 44.175 -86.895 44.175 
	-86.904 44.177 -86.921 44.189 -86.944 44.191 -86.964 44.214 
	-86.966 44.212 -86.967 44.202 -86.969 44.195 -86.981 44.19 
	-86.984 44.181 -86.982 44.167 -86.977 44.158 -86.975 44.133 
	-86.981 44.12 -86.981 44.094 -86.988 44.076 -86.999 44.062 
	-87.005 44.055 -87.006 44.054 -87.006 44.054 -87.018 44.048 
	-87.019 44.048 -87.031 44.049 -87.037 44.052 -87.039 44.052 
	-87.044 44.057 -87.052 44.065 -87.057 44.074 -87.057 44.076 
	-87.057 44.076 -87.058 44.085 -87.058 44.085 -87.058 44.086 
	-87.058 44.092 -87.058 44.099 -87.058 44.107 -87.058 44.109 
	-87.059 44.109 -87.063 44.12 -87.064 44.128 -87.062 44.133 
	-87.055 44.135 -87.054 44.137 -87.052 44.139 -87.053 44.14 
	-87.054 44.142 -87.056 44.149 -87.057 44.15 -87.061 44.154 
	-87.07 44.168 -87.065 44.172 -87.059 44.178 -87.059 44.178 
	-87.068 44.18 -87.079 44.182 -87.094 44.185 -87.095 44.186 
	-87.097 44.186 -87.098 44.188 -87.099 44.188 -87.099 44.188 
	-87.099 44.191 -87.099 44.191 -87.111 44.201 -87.112 44.201 
	-87.128 44.205 -87.129 44.205 -87.146 44.213 -87.148 44.214 
	-87.162 44.22 -87.172 44.225 -87.176 44.229 -87.185 44.238 
	-87.187 44.24 -87.188 44.242 -87.191 44.245 -87.196 44.25 
	-87.207 44.265 -87.215 44.276 -87.222 44.286 -87.223 44.287 
	-87.224 44.288 -87.233 44.297 -87.234 44.298 -87.234 44.298 
	-87.25 44.318 -87.262 44.333 -87.263 44.335 -87.264 44.337 
	-87.28 44.369 -87.288 44.385 -87.289 44.386 -87.289 44.386 
	-87.306 44.411 -87.306 44.411 -87.318 44.421 -87.319 44.421 
	-87.319 44.422 -87.333 44.439 -87.334 44.444 -87.333 44.45 
	-87.329 44.455 -87.325 44.457 -87.327 44.461 -87.336 44.471 
	-87.35 44.478 -87.35 44.479 -87.359 44.487 -87.364 44.498 
	-87.371 44.503 -87.384 44.512 -87.39 44.516 -87.392 44.517 
	-87.392 44.518 -87.392 44.518 -87.394 44.523 -87.399 44.537 
	-87.409 44.548 -87.425 44.564 -87.429 44.568 -87.431 44.57 
	-87.431 44.57 -87.437 44.581 -87.438 44.593 -87.464 44.613 
	-87.465 44.613 -87.497 44.647 -87.512 44.662 -87.53 44.679 
	-87.535 44.683 -87.548 44.695 -87.549 44.696 -87.563 44.702 
	-87.566 44.705 -87.567 44.706 -87.57 44.708 -87.579 44.715 
	-87.583 44.718 -87.584 44.719 -87.585 44.72 -87.586 44.721 
	-87.587 44.723 -87.596 44.734 -87.597 44.736 -87.6 44.74 
	-87.602 44.743 -87.603 44.744 -87.603 44.744 -87.603 44.745 
	-87.607 44.752 -87.609 44.754 -87.612 44.763 -87.61 44.769 
	-87.61 44.77 -87.61 44.77 -87.61 44.771 -87.61 44.772 
	-87.608 44.774 -87.604 44.778 -87.6 44.784 -87.599 44.784 
	-87.59 44.79 -87.589 44.79 -87.585 44.79 -87.585 44.79 
	-87.581 44.789 -87.584 44.79 -87.59 44.791 -87.59 44.791 
	-87.591 44.792 -87.614 44.787 -87.621 44.784 -87.626 44.783 
	-87.626 44.783 -87.627 44.783 -87.628 44.783 -87.629 44.781 
	-87.631 44.781 -87.631 44.78 -87.635 44.781 -87.635 44.781 
	-87.636 44.781 -87.648 44.78 -87.652 44.778 -87.657 44.779 
	-87.659 44.779 -87.661 44.778 -87.661 44.774 -87.664 44.771 
	-87.666 44.769 -87.666 44.769 -87.667 44.768 -87.669 44.767 
	-87.671 44.766 -87.672 44.765 -87.678 44.756 -87.678 44.755 
	-87.676 44.752 -87.675 44.752 -87.683 44.743 -87.683 44.742 
	-87.688 44.739 -87.692 44.737 -87.695 44.736 -87.7 44.735 
	-87.703 44.734 -87.707 44.732 -87.708 44.731 -87.711 44.728 
	-87.717 44.725 -87.723 44.721 -87.724 44.719 -87.727 44.717 
	-87.73 44.716 -87.735 44.715 -87.736 44.714 -87.736 44.713 
	-87.735 44.709 -87.741 44.69 -87.741 44.689 -87.741 44.689 
	-87.741 44.688 -87.741 44.687 -87.739 44.684 -87.736 44.682 
	-87.727 44.679 -87.726 44.677 -87.726 44.674 -87.727 44.67 
	-87.726 44.668 -87.722 44.663 -87.721 44.66 -87.721 44.658 
	-87.724 44.657 -87.725 44.655 -87.724 44.653 -87.718 44.648 
	-87.717 44.648 -87.713 44.648 -87.712 44.648 -87.711 44.647 
	-87.711 44.641 -87.709 44.632 -87.707 44.628 -87.709 44.626 
	-87.703 44.62 -87.698 44.617 -87.698 44.615 -87.698 44.614 
	-87.698 44.613 -87.699 44.61 -87.698 44.605 -87.693 44.599 
	-87.69 44.596 -87.69 44.596 -87.69 44.596 -87.69 44.596 
	-87.687 44.59 -87.687 44.589 -87.679 44.581 -87.675 44.579 
	-87.667 44.57 -87.665 44.569 -87.664 44.569 -87.664 44.569 
	-87.663 44.568 -87.662 44.567 -87.661 44.565 -87.661 44.565 
	-87.661 44.565 -87.661 44.56 -87.661 44.56 -87.661 44.56 
	-87.662 44.56 -87.661 44.559 -87.66 44.558 -87.659 44.557 
	-87.656 44.556 -87.655 44.556 -87.655 44.555 -87.648 44.547 
	-87.647 44.541 -87.647 44.536 -87.648 44.534 -87.65 44.533 
	-87.65 44.533 -87.651 44.533 -87.653 44.532 -87.656 44.528 
	-87.656 44.526 -87.655 44.525 -87.655 44.524 -87.656 44.519 
	-87.657 44.518 -87.673 44.51 -87.674 44.508 -87.674 44.505 
	-87.675 44.504 -87.682 44.502 -87.685 44.498 -87.69 44.497 
	-87.693 44.497 -87.698 44.498 -87.699 44.498 -87.699 44.499 
	-87.704 44.501 -87.705 44.502 -87.706 44.503 -87.708 44.505 
	-87.718 44.509 -87.733 44.522 -87.737 44.527 -87.738 44.528 
	-87.75 44.532 -87.751 44.532 -87.751 44.535 -87.754 44.537 
	-87.762 44.538 -87.769 44.535 -87.771 44.535 -87.773 44.535 
	-87.783 44.537 -87.787 44.534 -87.79 44.533 -87.8 44.533 
	-87.81 44.535 -87.823 44.534 -87.823 44.535 -87.824 44.536 
	-87.826 44.536 -87.829 44.535 -87.832 44.534 -87.835 44.536 
	-87.836 44.54 -87.838 44.541 -87.848 44.546 -87.85 44.546 
	-87.851 44.545 -87.851 44.544 -87.849 44.542 -87.85 44.539 
	-87.852 44.537 -87.858 44.536 -87.86 44.535 -87.863 44.534 
	-87.864 44.532 -87.865 44.531 -87.865 44.531 -87.865 44.529 
	-87.865 44.528 -87.867 44.526 -87.868 44.526 -87.87 44.526 
	-87.871 44.527 -87.871 44.527 -87.871 44.528 -87.871 44.53 
	-87.871 44.531 -87.872 44.531 -87.873 44.532 -87.879 44.535 
	-87.881 44.535 -87.881 44.535 -87.885 44.535 -87.886 44.533 
	-87.888 44.532 -87.887 44.53 -87.887 44.528 -87.887 44.528 
	-87.884 44.524 -87.876 44.518 -87.871 44.515 -87.871 44.513 
	-87.875 44.51 -87.875 44.507 -87.873 44.505 -87.87 44.503 
	-87.864 44.501 -87.859 44.498 -87.856 44.493 -87.859 44.49 
	-87.859 44.489 -87.859 44.488 -87.85 44.485 -87.849 44.483 
	-87.849 44.477 -87.85 44.475 -87.851 44.473 -87.852 44.473 
	-87.856 44.47 -87.86 44.463 -87.86 44.457 -87.861 44.453 
	-87.861 44.452 -87.855 44.445 -87.847 44.442 -87.844 44.438 
	-87.836 44.436 -87.833 44.433 -87.832 44.432 -87.827 44.428 
	-87.821 44.427 -87.813 44.423 -87.812 44.422 -87.812 44.422 
	-87.812 44.422 -87.812 44.42 -87.811 44.419 -87.805 44.413 
	-87.805 44.412 -87.807 44.41 -87.806 44.407 -87.798 44.401 
	-87.798 44.4 -87.797 44.395 -87.796 44.392 -87.793 44.388 
	-87.792 44.387 -87.793 44.382 -87.798 44.38 -87.802 44.372 
	-87.804 44.362 -87.804 44.355 -87.804 44.352 -87.803 44.35 
	-87.803 44.348 -87.807 44.343 -87.813 44.338 -87.818 44.334 
	-87.827 44.331 -87.832 44.328 -87.832 44.327 -87.833 44.324 
	-87.831 44.319 -87.829 44.318 -87.813 44.321 -87.806 44.324 
	-87.797 44.324 -87.792 44.324 -87.79 44.322 -87.788 44.321 
	-87.788 44.319 -87.787 44.312 -87.787 44.307 -87.787 44.305 
	-87.786 44.304 -87.785 44.303 -87.781 44.301 -87.777 44.298 
	-87.776 44.293 -87.776 44.289 -87.776 44.289 -87.776 44.283 
	-87.777 44.277 -87.78 44.272 -87.792 44.27 -87.795 44.268 
	-87.796 44.264 -87.796 44.263 -87.804 44.258 -87.81 44.248 
	-87.817 44.243 -87.821 44.241 -87.824 44.239 -87.824 44.233 
	-87.822 44.23 -87.822 44.229 -87.823 44.227 -87.823 44.225 
	-87.823 44.224 -87.803 44.22 -87.798 44.216 -87.796 44.216 
	-87.795 44.215 -87.781 44.213 -87.781 44.213 -87.78 44.211 
	-87.78 44.206 -87.782 44.204 -87.787 44.199 -87.801 44.193 
	-87.804 44.191 -87.809 44.187 -87.809 44.186 -87.805 44.183 
	-87.805 44.182 -87.805 44.18 -87.81 44.176 -87.812 44.175 
	-87.831 44.172 -87.832 44.171 -87.833 44.171 -87.837 44.17 
	-87.838 44.169 -87.841 44.167 -87.847 44.164 -87.854 44.16 
	-87.855 44.16 -87.864 44.149 -87.863 44.144 -87.863 44.143 
	-87.864 44.141 -87.868 44.137 -87.87 44.137 -87.873 44.136 
	-87.875 44.133 -87.879 44.132 -87.882 44.132 -87.891 44.133 
	-87.896 44.134 -87.898 44.134 -87.9 44.133 -87.901 44.13 
	-87.902 44.129 -87.904 44.127 -87.905 44.127 -87.907 44.127 
	-87.908 44.128 -87.921 44.13 -87.926 44.127 -87.929 44.126 
	-87.934 44.128 -87.942 44.129 -87.944 44.129 -87.944 44.129 
	-87.949 44.129 -87.954 44.128 -87.959 44.129 -87.963 44.128 
	-87.964 44.127 -87.963 44.126 -87.966 44.123 -87.972 44.12 
	-87.976 44.12 -87.986 44.117 -87.989 44.115 -87.989 44.114 
	-87.986 44.112 -87.985 44.112 -87.984 44.112 -87.983 44.112 
	-87.981 44.111 -87.98 44.11 -87.982 44.104 -87.986 44.096 
	-87.987 44.093 -87.988 44.093 -87.988 44.093 -87.989 44.092 
	-87.991 44.091 -87.995 44.091 -87.995 44.091 -87.998 44.092 
	-88 44.092 -88.001 44.092 -88.006 44.094 -88.006 44.094 
	-88.007 44.094 -88.007 44.094 -88.017 44.094 -88.023 44.096 
	-88.027 44.097 -88.031 44.097 -88.033 44.097 -88.039 44.097 
	-88.04 44.097 -88.04 44.1 -88.044 44.103 -88.048 44.104 
	-88.05 44.106 -88.058 44.106 -88.06 44.106 -88.069 44.106 
	-88.072 44.106 -88.072 44.106 -88.076 44.105 -88.078 44.102 
	-88.078 44.102 -88.079 44.102 -88.079 44.102 -88.081 44.102 
	-88.082 44.102 -88.086 44.102 -88.087 44.102 -88.087 44.102 
	-88.088 44.102 -88.094 44.101 -88.099 44.096 -88.103 44.095 
	-88.106 44.089 -88.105 44.088 -88.105 44.086 -88.107 44.084 
	-88.107 44.084 -88.108 44.083 -88.109 44.083 -88.112 44.083 
	-88.116 44.082 -88.116 44.082 -88.127 44.078 -88.129 44.077 
	-88.13 44.077 -88.131 44.075 -88.136 44.068 -88.135 44.065 
	-88.135 44.065 -88.134 44.064 -88.133 44.063 -88.127 44.059 
	-88.127 44.059 -88.126 44.059 -88.122 44.057 -88.12 44.054 
	-88.114 44.049 -88.111 44.047 -88.109 44.047 -88.106 44.045 
	-88.098 44.036 -88.088 44.031 -88.087 44.029 -88.084 44.024 
	-88.082 44.022 -88.081 44.021 -88.077 44.023 -88.075 44.022 
	-88.074 44.02 -88.073 44.015 -88.073 44.011 -88.081 44.006 
	-88.083 44.005 -88.095 44.007 -88.1 44.005 -88.101 44.004 
	-88.101 44.003 -88.105 43.99 -88.105 43.989 -88.106 43.986 
	-88.105 43.982 -88.104 43.98 -88.101 43.976 -88.099 43.974 
	-88.095 43.973 -88.095 43.971 -88.096 43.969 -88.102 43.965 
	-88.104 43.964 -88.105 43.964 -88.115 43.964 -88.116 43.965 
	-88.118 43.965 -88.119 43.966 -88.121 43.966 -88.125 43.965 
	-88.125 43.965 -88.126 43.965 -88.127 43.964 -88.127 43.963 
	-88.126 43.962 -88.126 43.962 -88.126 43.962 -88.127 43.96 
	-88.139 43.956 -88.141 43.956 -88.145 43.953 -88.146 43.952 
	-88.146 43.951 -88.151 43.95 -88.158 43.948 -88.163 43.948 
	-88.163 43.948 -88.17 43.947 -88.172 43.946 -88.175 43.942 
	-88.178 43.939 -88.189 43.934 -88.191 43.934 -88.196 43.933 
	-88.197 43.933 -88.198 43.934 -88.202 43.937 -88.201 43.941 
	-88.201 43.941 -88.201 43.941 -88.207 43.942 -88.209 43.942 
	-88.209 43.942 -88.21 43.942 -88.211 43.942 -88.215 43.94 
	-88.222 43.938 -88.223 43.938 -88.227 43.939 -88.233 43.939 
	-88.239 43.938 -88.242 43.936 -88.244 43.934 -88.245 43.932 
	-88.246 43.93 -88.245 43.928 -88.246 43.924 -88.249 43.923 
	-88.25 43.923 -88.25 43.923 -88.25 43.923 -88.254 43.923 
	-88.256 43.924 -88.259 43.927 -88.268 43.929 -88.283 43.931 
	-88.292 43.935 -88.292 43.935 -88.292 43.935 -88.294 43.935 
	-88.295 43.935 -88.295 43.935 -88.296 43.933 -88.3 43.93 
	-88.309 43.927 -88.315 43.926 -88.316 43.926 -88.316 43.926 
	-88.32 43.927 -88.32 43.927 -88.326 43.931 -88.326 43.931 
	-88.33 43.93 -88.33 43.93 -88.33 43.93 -88.327 43.928 
	-88.328 43.923 -88.33 43.921 -88.334 43.918 -88.354 43.908 
	-88.365 43.903 -88.37 43.9 -88.374 43.898 -88.375 43.897 
	-88.38 43.895 -88.385 43.896 -88.384 43.898 -88.384 43.898 
	-88.384 43.899 -88.388 43.904 -88.395 43.906 -88.399 43.906 
	-88.402 43.905 -88.409 43.907 -88.411 43.907 -88.414 43.911 
	-88.416 43.911 -88.416 43.911 -88.42 43.91 -88.423 43.908 
	-88.422 43.906 -88.423 43.905 -88.426 43.902 -88.434 43.9 
	-88.435 43.898 -88.439 43.896 -88.443 43.896 -88.448 43.897 
	-88.45 43.896 -88.454 43.893 -88.453 43.89 -88.454 43.889 
	-88.458 43.887 -88.465 43.886 -88.47 43.886 -88.474 43.888 
	-88.475 43.89 -88.474 43.892 -88.475 43.893 -88.476 43.894 
	-88.476 43.894 -88.478 43.895 -88.486 43.896 -88.486 43.896 
	-88.492 43.894 -88.492 43.894 -88.497 43.891 -88.497 43.891 
	-88.497 43.89 -88.498 43.89 -88.496 43.888 -88.496 43.888 
	-88.497 43.887 -88.498 43.886 -88.498 43.886 -88.5 43.886 
	-88.5 43.885 -88.502 43.882 -88.505 43.873 -88.506 43.869 
	-88.507 43.868 -88.509 43.867 -88.514 43.867 -88.514 43.867 
	-88.523 43.867 -88.526 43.866 -88.532 43.865 -88.532 43.865 
	-88.533 43.866 -88.533 43.866 -88.533 43.866 -88.533 43.867 
	-88.534 43.868 -88.539 43.872 -88.539 43.872 -88.54 43.873 
	-88.541 43.873 -88.541 43.873 -88.55 43.874 -88.554 43.872 
	-88.555 43.872 -88.557 43.871 -88.565 43.871 -88.566 43.871 
	-88.571 43.873 -88.572 43.875 -88.58 43.88 -88.589 43.881 
	-88.589 43.881 -88.592 43.875 -88.593 43.872 -88.593 43.871 
	-88.598 43.869 -88.601 43.869 -88.603 43.87 -88.607 43.876 
	-88.611 43.883 -88.611 43.888 -88.613 43.896 -88.614 43.898 
	-88.616 43.899 -88.616 43.899 -88.623 43.898 -88.634 43.899 
	-88.634 43.899 -88.635 43.901 -88.637 43.902 -88.647 43.899 
	-88.651 43.899 -88.657 43.897 -88.661 43.898 -88.662 43.898 
	-88.663 43.897 -88.664 43.897 -88.664 43.895 -88.663 43.895 
	-88.663 43.894 -88.663 43.893 -88.667 43.892 -88.671 43.888 
	-88.67 43.887 -88.67 43.887 -88.671 43.881 -88.674 43.876 
	-88.674 43.876 -88.679 43.873 -88.691 43.871 -88.698 43.869 
	-88.704 43.868 -88.71 43.87 -88.713 43.874 -88.717 43.873 
	-88.718 43.873 -88.718 43.873 -88.721 43.868 -88.721 43.865 
	-88.724 43.862 -88.73 43.86 -88.739 43.859 -88.746 43.861 
	-88.752 43.863 -88.754 43.864 -88.756 43.866 -88.758 43.867 
	-88.76 43.867 -88.763 43.865 -88.765 43.864 -88.766 43.864 
	-88.767 43.865 -88.767 43.865 -88.768 43.865 -88.768 43.866 
	-88.769 43.868 -88.776 43.871 -88.779 43.871 -88.782 43.87 
	-88.783 43.866 -88.784 43.864 -88.783 43.862 -88.778 43.858 
	-88.778 43.855 -88.778 43.855 -88.779 43.855 -88.779 43.855 
	-88.784 43.854 -88.791 43.855 -88.796 43.853 -88.797 43.854 
	-88.797 43.854 -88.8 43.857 -88.796 43.86 -88.795 43.862 
	-88.796 43.863 -88.801 43.863 -88.811 43.865 -88.815 43.864 
	-88.815 43.864 -88.816 43.863 -88.82 43.86 -88.831 43.857 
	-88.835 43.856 -88.835 43.856 -88.837 43.856 -88.84 43.855 
	-88.843 43.854 -88.847 43.849 -88.848 43.848 -88.85 43.846 
	-88.943 43.809 -88.948 43.806 -88.99 43.789 -89.091 43.748 
	-89.125 43.742 -89.161 43.735 -89.166 43.734 -89.194 43.729 
	-89.201 43.727 -89.203 43.727 -89.205 43.726 -89.218 43.724 
	-89.219 43.723 -89.276 43.713 -89.276 43.712 -89.49 43.671 
	-89.495 43.67 -89.533 43.662 -89.638 43.643 -89.656 43.639 
	-89.667 43.637 -89.735 43.624 -89.74 43.623 -89.741 43.623 
	-89.742 43.623 -89.764 43.618 -89.908 43.591 -89.909 43.59 
	-89.918 43.589 -89.929 43.587 -89.93 43.587 -89.99 43.575 
	-90.12 43.55 -90.121 43.549 -90.121 43.548 -90.121 43.548 
	-90.119 43.547 -90.118 43.544 -90.119 43.543 -90.119 43.542 
	-90.12 43.541 -90.12 43.54 -90.119 43.538 -90.117 43.537 
	-90.116 43.536 -90.116 43.531 -90.118 43.527 -90.119 43.527 
	-90.119 43.527 -90.12 43.527 -90.122 43.526 -90.122 43.526 
	-90.122 43.525 -90.122 43.524 -90.122 43.523 -90.126 43.52 
	-90.131 43.517 -90.133 43.515 -90.134 43.512 -90.134 43.512 
	-90.132 43.505 -90.133 43.504 -90.135 43.504 -90.139 43.502 
	-90.144 43.496 -90.146 43.489 -90.148 43.487 -90.152 43.485 
	-90.157 43.477 -90.158 43.473 -90.158 43.466 -90.158 43.464 
	-90.16 43.46 -90.16 43.46 -90.163 43.452 -90.166 43.449 
	-90.166 43.449 -90.166 43.447 -90.166 43.447 -90.174 43.447 
	-90.177 43.446 -90.178 43.437 -90.178 43.436 -90.179 43.433 
	-90.179 43.433 -90.18 43.43 -90.189 43.428 -90.19 43.426 
	-90.192 43.424 -90.193 43.423 -90.193 43.423 -90.193 43.423 
	-90.192 43.421 -90.192 43.421 -90.192 43.421 -90.189 43.42 
	-90.188 43.418 -90.188 43.418 -90.193 43.414 -90.193 43.414 
	-90.201 43.41 -90.204 43.408 -90.211 43.396 -90.214 43.388 
	-90.214 43.387 -90.216 43.385 -90.22 43.383 -90.222 43.383 
	-90.228 43.385 -90.23 43.385 -90.231 43.383 -90.23 43.382 
	-90.229 43.379 -90.23 43.377 -90.231 43.377 -90.236 43.379 
	-90.243 43.381 -90.246 43.382 -90.248 43.381 -90.257 43.382 
	-90.258 43.383 -90.26 43.384 -90.263 43.384 -90.265 43.383 
	-90.265 43.382 -90.265 43.381 -90.265 43.381 -90.265 43.38 
	-90.266 43.379 -90.268 43.379 -90.269 43.379 -90.27 43.379 
	-90.27 43.378 -90.27 43.377 -90.27 43.376 -90.27 43.375 
	-90.274 43.371 -90.271 43.367 -90.272 43.365 -90.277 43.362 
	-90.278 43.363 -90.278 43.364 -90.283 43.368 -90.285 43.368 
	-90.292 43.366 -90.294 43.367 -90.294 43.368 -90.298 43.369 
	-90.303 43.369 -90.306 43.368 -90.307 43.368 -90.312 43.369 
	-90.313 43.37 -90.313 43.37 -90.316 43.369 -90.317 43.365 
	-90.314 43.363 -90.312 43.359 -90.311 43.358 -90.311 43.356 
	-90.311 43.354 -90.31 43.35 -90.31 43.35 -90.31 43.349 
	-90.31 43.348 -90.31 43.347 -90.311 43.347 -90.311 43.347 
	-90.32 43.34 -90.32 43.34 -90.323 43.341 -90.324 43.341 
	-90.324 43.341 -90.325 43.341 -90.326 43.34 -90.326 43.34 
	-90.328 43.339 -90.327 43.336 -90.331 43.333 -90.332 43.333 
	-90.336 43.332 -90.344 43.334 -90.347 43.339 -90.349 43.348 
	-90.349 43.349 -90.35 43.349 -90.35 43.349 -90.351 43.349 
	-90.352 43.349 -90.353 43.349 -90.353 43.349 -90.353 43.349 
	-90.355 43.346 -90.357 43.346 -90.357 43.346 -90.361 43.345 
	-90.369 43.346 -90.374 43.347 -90.387 43.353 -90.393 43.354 
	-90.395 43.353 -90.395 43.35 -90.398 43.344 -90.4 43.342 
	-90.4 43.342 -90.402 43.342 -90.405 43.339 -90.407 43.334 
	-90.414 43.329 -90.414 43.329 -90.415 43.323 -90.418 43.32 
	" />
<polyline id="poly3" points="
	-84.589 44.061 -84.583 44.064 -84.578 44.066 -84.538 44.079 
	-84.514 44.076 -84.492 44.081 -84.432 44.1 -84.426 44.098 
	-84.421 44.094 -84.419 44.087 -84.421 44.081 -84.419 44.08 
	-84.41 44.089 -84.403 44.102 -84.356 44.115 -84.356 44.117 
	-84.37 44.13 -84.372 44.141 -84.394 44.151 -84.395 44.154 
	-84.394 44.159 -84.405 44.164 -84.418 44.165 -84.43 44.16 
	-84.451 44.159 -84.469 44.154 -84.484 44.156 -84.5 44.149 
	-84.507 44.142 -84.509 44.132 -84.525 44.122 -84.549 44.097 
	-84.561 44.09 -84.581 44.084 -84.587 44.08 -84.59 44.073 
	-84.593 44.069 -84.593 44.069 -84.593 44.068 -84.597 44.064 
	-84.611 44.053 -84.623 44.04 -84.629 44.037 -84.639 44.034 
	-84.65 44.027 -84.651 44.024 -84.646 44.002 -84.646 44.002 
	-84.641 44.001 -84.629 44.004 -84.622 44.009 -84.608 44.025 
	-84.602 44.035 -84.589 44.061 -84.589 44.061 " />
<polyline id="poly4" points="
	-86.073 45.108 -86.071 45.084 -86.071 45.082 -86.071 45.082 
	-86.066 45.066 -86.065 45.065 -86.065 45.064 -86.065 45.062 
	-86.066 45.052 -86.07 45.023 -86.071 45.021 -86.072 45.002 
	-86.07 44.991 -86.066 44.981 -86.058 44.976 -86.038 44.971 
	-86.031 44.979 -86.021 44.984 -86.009 44.987 -85.992 44.987 
	-85.98 44.98 -85.972 44.972 -85.967 44.957 -85.961 44.951 
	-85.952 44.946 -85.951 44.945 -85.951 44.945 -85.942 44.933 
	-85.942 44.932 -85.938 44.922 -85.938 44.922 -85.937 44.921 
	-85.935 44.92 -85.931 44.918 -85.915 44.918 -85.897 44.925 
	-85.891 44.929 -85.879 44.943 -85.872 44.946 -85.869 44.948 
	-85.854 44.948 -85.836 44.946 -85.815 44.941 -85.812 44.939 
	-85.811 44.939 -85.807 44.937 -85.804 44.934 -85.78 44.909 
	-85.778 44.903 -85.776 44.886 -85.775 44.885 -85.771 44.871 
	-85.761 44.863 -85.746 44.835 -85.74 44.831 -85.712 44.821 
	-85.695 44.81 -85.691 44.805 -85.689 44.803 -85.681 44.794 
	-85.675 44.781 -85.674 44.77 -85.656 44.741 -85.633 44.716 
	-85.618 44.7 -85.613 44.702 -85.611 44.705 -85.606 44.708 
	-85.593 44.708 -85.585 44.706 -85.564 44.694 -85.561 44.686 
	-85.551 44.676 -85.54 44.676 -85.526 44.697 -85.531 44.709 
	-85.536 44.713 -85.552 44.719 -85.561 44.728 -85.562 44.73 
	-85.563 44.731 -85.563 44.732 -85.564 44.733 -85.566 44.733 
	-85.568 44.733 -85.57 44.731 -85.573 44.731 -85.59 44.733 
	-85.599 44.737 -85.602 44.742 -85.61 44.753 -85.614 44.759 
	-85.609 44.773 -85.609 44.773 -85.609 44.773 -85.602 44.784 
	-85.583 44.815 -85.573 44.818 -85.566 44.827 -85.566 44.843 
	-85.57 44.845 -85.573 44.843 -85.596 44.846 -85.597 44.846 
	-85.597 44.846 -85.599 44.862 -85.599 44.862 -85.599 44.863 
	-85.599 44.863 -85.599 44.863 -85.599 44.864 -85.599 44.865 
	-85.601 44.867 -85.602 44.868 -85.603 44.868 -85.603 44.868 
	-85.603 44.868 -85.604 44.869 -85.605 44.87 -85.607 44.872 
	-85.609 44.873 -85.621 44.882 -85.612 44.891 -85.606 44.896 
	-85.604 44.896 -85.602 44.912 -85.602 44.934 -85.602 44.96 
	-85.605 44.96 -85.621 44.963 -85.625 44.965 -85.639 44.996 
	-85.645 45.003 -85.646 45.005 -85.648 45.013 -85.65 45.024 
	-85.652 45.036 -85.652 45.037 -85.652 45.037 -85.651 45.055 
	-85.645 45.068 -85.643 45.071 -85.641 45.076 -85.638 45.091 
	-85.637 45.096 -85.639 45.106 -85.639 45.107 -85.64 45.108 
	-85.64 45.108 -85.64 45.111 -85.64 45.111 -85.64 45.111 
	-85.64 45.111 -85.636 45.115 -85.636 45.115 -85.632 45.117 
	-85.629 45.118 -85.627 45.119 -85.627 45.119 -85.619 45.12 
	-85.614 45.121 -85.612 45.121 -85.61 45.121 -85.608 45.121 
	-85.605 45.121 -85.602 45.121 -85.599 45.121 -85.598 45.12 
	-85.593 45.118 -85.593 45.118 -85.593 45.118 -85.593 45.117 
	-85.592 45.112 -85.591 45.108 -85.59 45.103 -85.581 45.079 
	-85.58 45.076 -85.573 45.066 -85.573 45.065 -85.572 45.064 
	-85.558 45.042 -85.545 45.023 -85.539 45.018 -85.533 45.014 
	-85.532 45.013 -85.532 45.013 -85.531 45.006 -85.531 45.005 
	-85.53 44.999 -85.53 44.998 -85.53 44.997 -85.53 44.997 
	-85.553 44.996 -85.553 44.996 -85.559 44.998 -85.559 44.998 
	-85.559 44.998 -85.564 44.991 -85.554 44.983 -85.55 44.979 
	-85.539 44.97 -85.533 44.961 -85.529 44.95 -85.52 44.926 
	-85.52 44.924 -85.522 44.92 -85.52 44.913 -85.492 44.897 
	-85.475 44.896 -85.47 44.906 -85.466 44.921 -85.464 44.926 
	-85.466 44.928 -85.472 44.927 -85.485 44.933 -85.485 44.933 
	-85.489 44.949 -85.491 44.959 -85.492 44.977 -85.492 44.978 
	-85.488 44.985 -85.498 45.021 -85.502 45.031 -85.508 45.038 
	-85.508 45.038 -85.508 45.039 -85.519 45.041 -85.527 45.046 
	-85.533 45.049 -85.534 45.05 -85.539 45.052 -85.555 45.068 
	-85.555 45.068 -85.555 45.068 -85.56 45.076 -85.56 45.09 
	-85.56 45.091 -85.56 45.097 -85.56 45.097 -85.568 45.112 
	-85.568 45.112 -85.57 45.116 -85.571 45.117 -85.574 45.123 
	-85.574 45.123 -85.574 45.123 -85.575 45.124 -85.576 45.126 
	-85.575 45.127 -85.575 45.128 -85.574 45.128 -85.571 45.131 
	-85.571 45.131 -85.57 45.132 -85.557 45.137 -85.554 45.138 
	-85.538 45.14 -85.533 45.139 -85.53 45.139 -85.527 45.138 
	-85.526 45.138 -85.526 45.138 -85.526 45.137 -85.508 45.121 
	-85.507 45.121 -85.505 45.119 -85.504 45.118 -85.504 45.118 
	-85.504 45.114 -85.503 45.114 -85.504 45.112 -85.505 45.105 
	-85.506 45.102 -85.507 45.102 -85.509 45.099 -85.499 45.083 
	-85.499 45.083 -85.499 45.083 -85.492 45.08 -85.481 45.075 
	-85.474 45.072 -85.474 45.071 -85.463 45.062 -85.462 45.061 
	-85.46 45.051 -85.46 45.051 -85.451 45.039 -85.442 45.027 
	-85.439 45.023 -85.425 45.005 -85.424 45.001 -85.424 44.998 
	-85.423 44.992 -85.423 44.992 -85.422 44.991 -85.422 44.991 
	-85.42 44.989 -85.417 44.986 -85.416 44.985 -85.413 44.982 
	-85.406 44.975 -85.406 44.975 -85.395 44.956 -85.393 44.946 
	-85.391 44.94 -85.391 44.94 -85.38 44.896 -85.378 44.888 
	-85.378 44.888 -85.381 44.868 -85.381 44.868 -85.381 44.867 
	-85.381 44.866 -85.38 44.84 -85.38 44.84 -85.377 44.831 
	-85.366 44.818 -85.366 44.8 -85.366 44.77 -85.369 44.765 
	-85.369 44.765 -85.372 44.76 -85.373 44.756 -85.376 44.744 
	-85.38 44.706 -85.386 44.697 -85.387 44.679 -85.388 44.651 
	-85.371 44.616 -85.355 44.604 -85.335 44.593 -85.335 44.593 
	-85.323 44.583 -85.316 44.579 -85.307 44.573 -85.294 44.57 
	-85.289 44.573 -85.273 44.571 -85.27 44.57 -85.266 44.568 
	-85.262 44.567 -85.262 44.567 -85.255 44.561 -85.255 44.561 
	-85.252 44.556 -85.235 44.547 -85.219 44.536 -85.209 44.53 
	-85.196 44.526 -85.182 44.526 -85.17 44.523 -85.143 44.516 
	-85.095 44.52 -85.095 44.52 -85.095 44.52 -85.054 44.522 
	-85.043 44.525 -85.042 44.525 -85.042 44.525 -85.032 44.525 
	-85.022 44.52 -84.999 44.517 -84.997 44.516 -84.985 44.514 
	-84.975 44.513 -84.962 44.511 -84.96 44.511 -84.96 44.511 
	-84.959 44.511 -84.959 44.511 -84.94 44.503 -84.917 44.494 
	-84.915 44.493 -84.915 44.493 -84.912 44.484 -84.912 44.484 
	-84.912 44.48 -84.912 44.477 -84.912 44.477 -84.913 44.476 
	-84.914 44.473 -84.914 44.473 -84.916 44.469 -84.922 44.465 
	-84.971 44.458 -84.98 44.457 -84.99 44.459 -84.99 44.461 
	-84.99 44.461 -84.99 44.461 -84.99 44.461 -84.983 44.466 
	-84.978 44.466 -84.977 44.467 -84.977 44.467 -84.977 44.467 
	-84.978 44.468 -84.992 44.464 -84.993 44.464 -84.994 44.463 
	-85.013 44.458 -85.035 44.452 -85.04 44.45 -85.045 44.446 
	-85.055 44.438 -85.069 44.427 -85.069 44.427 -85.088 44.41 
	-85.088 44.41 -85.089 44.407 -85.096 44.392 -85.103 44.376 
	-85.109 44.365 -85.109 44.364 -85.115 44.347 -85.117 44.336 
	-85.119 44.318 -85.118 44.311 -85.111 44.301 -85.093 44.286 
	-85.079 44.269 -85.076 44.264 -85.075 44.263 -85.075 44.263 
	-85.075 44.263 -85.074 44.257 -85.061 44.247 -85.043 44.242 
	-85.016 44.235 -85.015 44.235 -85.014 44.234 -85.007 44.23 
	-85.001 44.225 -84.996 44.217 -84.977 44.204 -84.974 44.203 
	-84.97 44.2 -84.945 44.177 -84.944 44.177 -84.943 44.176 
	-84.943 44.176 -84.94 44.165 -84.942 44.158 -84.95 44.15 
	-84.958 44.146 -84.967 44.142 -84.982 44.135 -84.986 44.134 
	-84.996 44.133 -85.001 44.133 -85.002 44.133 -85.011 44.129 
	-85.014 44.126 -85.009 44.124 -85.007 44.123 -84.995 44.127 
	-84.938 44.127 -84.924 44.13 -84.91 44.137 -84.866 44.134 
	-84.862 44.136 -84.858 44.137 -84.853 44.138 -84.84 44.142 
	-84.806 44.14 -84.799 44.139 -84.789 44.135 -84.788 44.134 
	-84.788 44.134 -84.782 44.126 -84.781 44.126 -84.781 44.125 
	-84.781 44.125 -84.779 44.117 -84.781 44.115 -84.787 44.111 
	-84.792 44.108 -84.792 44.108 -84.792 44.107 -84.793 44.106 
	-84.792 44.106 -84.781 44.1 -84.78 44.099 -84.779 44.099 
	-84.774 44.098 -84.773 44.097 -84.772 44.097 -84.772 44.097 
	-84.751 44.104 -84.742 44.102 -84.734 44.099 -84.734 44.098 
	-84.733 44.098 -84.732 44.099 -84.726 44.1 -84.723 44.103 
	-84.718 44.109 -84.718 44.109 -84.715 44.12 -84.681 44.13 
	-84.68 44.134 -84.679 44.137 -84.659 44.143 -84.644 44.147 
	-84.616 44.159 -84.608 44.163 -84.604 44.165 -84.6 44.166 
	-84.598 44.167 -84.574 44.176 -84.573 44.176 -84.555 44.184 
	-84.553 44.188 -84.546 44.192 -84.538 44.196 -84.53 44.2 
	-84.529 44.201 -84.518 44.206 -84.505 44.213 -84.497 44.216 
	-84.497 44.216 -84.485 44.223 -84.479 44.225 -84.466 44.232 
	-84.465 44.232 -84.463 44.233 -84.463 44.233 -84.461 44.234 
	-84.461 44.234 -84.45 44.233 -84.442 44.232 -84.435 44.222 
	-84.427 44.217 -84.413 44.217 -84.413 44.217 -84.401 44.223 
	-84.4 44.223 -84.398 44.224 -84.393 44.226 -84.389 44.227 
	-84.379 44.23 -84.376 44.231 -84.346 44.225 -84.329 44.222 
	-84.304 44.229 -84.289 44.233 -84.288 44.234 -84.28 44.237 
	-84.27 44.242 -84.229 44.249 -84.215 44.252 -84.203 44.26 
	-84.196 44.265 -84.18 44.282 -84.178 44.284 -84.164 44.295 
	-84.157 44.301 -84.139 44.313 -84.135 44.317 -84.128 44.324 
	-84.128 44.324 -84.126 44.33 -84.126 44.343 -84.126 44.344 
	-84.126 44.345 -84.126 44.346 -84.122 44.363 -84.116 44.373 
	-84.116 44.374 -84.116 44.374 -84.11 44.38 -84.109 44.381 
	-84.106 44.383 -84.095 44.389 -84.077 44.395 -84.075 44.396 
	-84.074 44.396 -84.073 44.396 -84.058 44.397 -84.056 44.397 
	-84.055 44.397 -84.039 44.393 -84.036 44.39 -84.036 44.39 
	-84.028 44.389 -84.027 44.39 -84.018 44.391 -84.009 44.391 
	-84.009 44.391 -84.009 44.392 -83.998 44.395 -83.981 44.393 
	-83.978 44.392 -83.965 44.393 -83.961 44.393 -83.939 44.393 
	-83.928 44.396 -83.914 44.399 -83.909 44.401 -83.881 44.419 
	-83.858 44.44 -83.849 44.446 -83.845 44.448 -83.843 44.45 
	-83.841 44.451 -83.841 44.451 -83.835 44.454 -83.825 44.459 
	-83.821 44.46 -83.815 44.463 -83.814 44.464 -83.814 44.464 
	-83.814 44.464 -83.806 44.467 -83.788 44.47 -83.773 44.469 
	-83.762 44.473 -83.762 44.473 -83.755 44.476 -83.743 44.476 
	-83.737 44.476 -83.734 44.475 -83.722 44.473 -83.721 44.473 
	-83.702 44.487 -83.698 44.49 -83.697 44.49 -83.694 44.492 
	-83.683 44.496 -83.678 44.498 -83.667 44.502 -83.667 44.502 
	-83.647 44.513 -83.644 44.514 -83.643 44.515 -83.639 44.517 
	-83.638 44.517 -83.626 44.522 -83.599 44.534 -83.599 44.534 
	-83.596 44.535 -83.573 44.539 -83.57 44.539 -83.557 44.537 
	-83.55 44.536 -83.546 44.534 -83.546 44.532 -83.545 44.528 
	-83.545 44.528 -83.544 44.528 -83.538 44.528 -83.52 44.539 
	-83.514 44.54 -83.496 44.529 -83.488 44.531 -83.488 44.531 
	-83.482 44.539 -83.477 44.545 -83.467 44.554 -83.45 44.571 
	-83.445 44.576 -83.433 44.583 -83.425 44.59 -83.422 44.596 
	-83.422 44.596 -83.422 44.596 -83.421 44.596 -83.401 44.607 
	-83.397 44.608 -83.388 44.61 -83.385 44.612 -83.381 44.618 
	-83.388 44.632 -83.399 44.636 -83.412 44.641 -83.412 44.648 
	-83.407 44.657 -83.405 44.659 -83.405 44.659 -83.397 44.669 
	-83.393 44.673 -83.391 44.675 -83.387 44.679 -83.387 44.679 
	-83.386 44.681 -83.384 44.683 -83.381 44.683 -83.368 44.704 
	-83.368 44.705 -83.368 44.714 -83.363 44.72 -83.359 44.724 
	-83.348 44.725 -83.347 44.727 -83.346 44.728 -83.337 44.739 
	-83.316 44.745 -83.315 44.747 -83.319 44.749 -83.318 44.758 
	-83.307 44.787 -83.298 44.796 -83.29 44.817 -83.291 44.824 
	-83.28 44.841 -83.277 44.842 -83.271 44.848 -83.265 44.86 
	-83.271 44.863 -83.287 44.86 -83.302 44.854 -83.34 44.845 
	-83.357 44.836 -83.367 44.824 -83.374 44.822 -83.376 44.822 
	-83.39 44.818 -83.392 44.818 -83.396 44.817 -83.399 44.816 
	-83.413 44.821 -83.417 44.823 -83.424 44.825 -83.425 44.826 
	-83.426 44.826 -83.43 44.828 -83.43 44.828 -83.43 44.828 
	-83.43 44.828 -83.433 44.829 -83.433 44.829 -83.433 44.829 
	-83.434 44.83 -83.442 44.836 -83.447 44.843 -83.448 44.844 
	-83.448 44.845 -83.453 44.851 -83.454 44.854 -83.454 44.855 
	-83.452 44.858 -83.446 44.87 -83.435 44.875 -83.431 44.879 
	-83.433 44.882 -83.433 44.882 -83.435 44.887 -83.438 44.887 
	-83.449 44.896 -83.45 44.896 -83.448 44.903 -83.447 44.914 
	-83.445 44.922 -83.444 44.927 -83.444 44.927 -83.443 44.934 
	-83.441 44.94 -83.438 44.946 -83.433 44.954 -83.432 44.954 
	-83.425 44.96 -83.419 44.962 -83.418 44.962 -83.404 44.968 
	-83.398 44.98 -83.393 44.984 -83.352 45 -83.32 45.006 
	-83.321 45.028 -83.321 45.028 -83.321 45.034 -83.314 45.044 
	-83.307 45.051 -83.3 45.057 -83.299 45.063 -83.298 45.071 
	-83.295 45.093 -83.295 45.093 -83.296 45.108 -83.296 45.113 
	-83.296 45.128 -83.297 45.128 -83.297 45.13 -83.298 45.132 
	-83.298 45.133 -83.297 45.14 -83.29 45.157 -83.29 45.157 
	-83.289 45.158 -83.284 45.164 -83.284 45.165 -83.282 45.166 
	-83.275 45.171 -83.273 45.173 -83.274 45.181 -83.276 45.193 
	-83.276 45.197 -83.276 45.197 -83.278 45.201 -83.285 45.223 
	-83.288 45.23 -83.289 45.234 -83.289 45.234 -83.29 45.235 
	-83.295 45.241 -83.307 45.257 -83.314 45.277 -83.314 45.278 
	-83.314 45.279 -83.314 45.284 -83.315 45.288 -83.315 45.291 
	-83.315 45.295 -83.315 45.299 -83.313 45.322 -83.309 45.336 
	-83.308 45.338 -83.308 45.347 -83.309 45.35 -83.317 45.371 
	-83.318 45.372 -83.318 45.373 -83.318 45.375 -83.317 45.386 
	-83.317 45.4 -83.317 45.401 -83.317 45.402 -83.318 45.404 
	-83.326 45.442 -83.327 45.457 -83.326 45.461 -83.325 45.469 
	-83.324 45.471 -83.324 45.471 -83.324 45.472 -83.321 45.477 
	-83.321 45.48 -83.321 45.482 -83.327 45.497 -83.333 45.514 
	-83.335 45.529 -83.333 45.541 -83.332 45.546 -83.332 45.546 
	-83.332 45.546 -83.334 45.549 -83.336 45.554 -83.343 45.557 
	-83.351 45.554 -83.352 45.554 -83.352 45.554 -83.364 45.554 
	-83.373 45.559 -83.374 45.559 -83.401 45.585 -83.41 45.59 
	-83.414 45.592 -83.419 45.599 -83.422 45.606 -83.425 45.614 
	-83.429 45.617 -83.44 45.62 -83.442 45.621 -83.445 45.613 
	-83.445 45.613 -83.447 45.613 -83.448 45.612 -83.46 45.608 
	-83.46 45.608 -83.463 45.608 -83.479 45.606 -83.485 45.607 
	-83.5 45.61 -83.501 45.61 -83.501 45.611 -83.508 45.613 
	-83.524 45.625 -83.535 45.636 -83.535 45.636 -83.537 45.638 
	-83.537 45.638 -83.538 45.64 -83.549 45.659 -83.552 45.676 
	-83.552 45.676 -83.553 45.689 -83.562 45.714 -83.565 45.723 
	-83.566 45.726 -83.567 45.731 -83.567 45.731 -83.568 45.742 
	-83.568 45.76 -83.567 45.767 -83.569 45.772 -83.573 45.785 
	-83.588 45.8 -83.588 45.801 -83.588 45.801 -83.588 45.801 
	-83.591 45.807 -83.59 45.817 -83.584 45.83 -83.601 45.832 
	-83.621 45.83 -83.65 45.834 -83.665 45.843 -83.679 45.85 
	-83.682 45.856 -83.683 45.857 -83.684 45.859 -83.686 45.863 
	-83.687 45.866 -83.68 45.892 -83.696 45.893 -83.708 45.894 
	-83.743 45.895 -83.746 45.898 -83.746 45.898 -83.747 45.898 
	-83.753 45.899 -83.758 45.9 -83.763 45.901 -83.779 45.901 
	-83.787 45.901 -83.806 45.9 -83.818 45.898 -83.829 45.897 
	-83.848 45.905 -83.854 45.909 -83.855 45.91 -83.855 45.91 
	-83.856 45.914 -83.859 45.917 -83.859 45.917 -83.869 45.926 
	-83.877 45.927 -83.877 45.927 -83.884 45.939 -83.885 45.94 
	-83.885 45.941 -83.89 45.952 -83.89 45.963 -83.907 45.969 
	-83.911 45.976 -83.916 45.988 -83.917 46.03 -83.918 46.037 
	-83.921 46.062 -83.923 46.076 -83.926 46.099 -83.929 46.109 
	-83.929 46.109 -83.934 46.114 -83.941 46.122 -83.945 46.127 
	-83.954 46.126 -83.956 46.127 -83.955 46.132 -83.954 46.136 
	-83.949 46.148 -83.939 46.171 -83.929 46.185 -83.909 46.214 
	-83.897 46.223 -83.883 46.228 -83.882 46.229 -83.877 46.231 
	-83.852 46.242 -83.848 46.242 -83.848 46.242 -83.814 46.244 
	-83.806 46.245 -83.779 46.256 -83.778 46.257 -83.77 46.258 
	-83.769 46.252 -83.769 46.252 -83.76 46.255 -83.752 46.258 
	-83.749 46.259 -83.748 46.259 -83.725 46.268 -83.703 46.289 
	-83.699 46.29 -83.669 46.296 -83.666 46.295 -83.654 46.287 
	-83.618 46.258 -83.595 46.236 -83.593 46.234 -83.585 46.225 
	-83.574 46.214 -83.563 46.203 -83.563 46.202 -83.553 46.201 
	-83.549 46.193 -83.551 46.187 -83.549 46.185 -83.545 46.182 
	-83.54 46.178 -83.524 46.17 -83.524 46.17 -83.515 46.168 
	-83.513 46.172 -83.506 46.176 -83.48 46.172 -83.47 46.163 
	-83.467 46.158 -83.467 46.157 -83.467 46.157 -83.465 46.153 
	-83.463 46.15 -83.459 46.146 -83.459 46.146 -83.447 46.132 
	-83.44 46.125 -83.438 46.119 -83.441 46.116 -83.446 46.115 
	-83.438 46.1 -83.426 46.087 -83.416 46.086 -83.411 46.082 
	-83.41 46.079 -83.412 46.069 -83.41 46.061 -83.407 46.055 
	-83.403 46.053 -83.39 46.047 -83.389 46.046 -83.389 46.042 
	-83.359 46.029 -83.359 46.029 -83.359 46.029 -83.358 46.029 
	-83.332 46.006 -83.332 46 -83.331 45.998 -83.331 45.998 
	-83.331 45.996 -83.331 45.993 -83.333 45.988 -83.336 45.986 
	-83.34 45.982 -83.345 45.981 -83.348 45.98 -83.348 45.977 
	-83.347 45.974 -83.34 45.972 -83.338 45.971 -83.319 45.969 
	-83.318 45.969 -83.318 45.969 -83.306 45.965 -83.305 45.964 
	-83.302 45.962 -83.293 45.956 -83.282 45.949 -83.271 45.933 
	-83.268 45.93 -83.261 45.918 -83.261 45.913 -83.261 45.913 
	-83.249 45.911 -83.243 45.909 -83.238 45.908 -83.227 45.906 
	-83.227 45.906 -83.21 45.904 -83.205 45.904 -83.195 45.903 
	-83.195 45.903 -83.192 45.904 -83.18 45.904 -83.154 45.899 
	-83.148 45.898 -83.145 45.897 -83.137 45.894 -83.135 45.894 
	-83.134 45.893 -83.13 45.891 -83.126 45.889 -83.122 45.887 
	-83.12 45.886 -83.107 45.883 -83.107 45.883 -83.08 45.885 
	-83.079 45.885 -83.078 45.885 -83.066 45.883 -83.062 45.882 
	-83.058 45.88 -83.046 45.871 -83.04 45.862 -83.039 45.86 
	-83.037 45.856 -83.034 45.853 -83.029 45.845 -83.024 45.841 
	-83.013 45.841 -83.009 45.841 -83 45.84 -83 45.84 
	-82.999 45.84 -82.996 45.839 -82.99 45.838 -82.984 45.833 
	-82.981 45.831 -82.968 45.821 -82.967 45.82 -82.958 45.821 
	-82.956 45.823 -82.947 45.824 -82.934 45.819 -82.931 45.818 
	-82.928 45.817 -82.915 45.816 -82.915 45.816 -82.907 45.822 
	-82.903 45.825 -82.889 45.836 -82.889 45.836 -82.875 45.842 
	-82.854 45.846 -82.833 45.85 -82.829 45.851 -82.821 45.854 
	-82.816 45.856 -82.813 45.856 -82.793 45.863 -82.788 45.873 
	-82.783 45.877 -82.775 45.878 -82.768 45.879 -82.765 45.88 
	-82.746 45.891 -82.74 45.896 -82.738 45.897 -82.728 45.914 
	-82.726 45.917 -82.723 45.921 -82.712 45.937 -82.711 45.938 
	-82.709 45.938 -82.709 45.939 -82.709 45.939 -82.704 45.948 
	-82.701 45.954 -82.7 45.955 -82.693 45.969 -82.684 45.99 
	-82.683 45.992 -82.678 46.003 -82.66 46.015 -82.655 46.019 
	-82.651 46.023 -82.65 46.024 -82.648 46.027 -82.645 46.032 
	-82.643 46.034 -82.643 46.037 -82.643 46.037 -82.642 46.04 
	-82.644 46.041 -82.647 46.042 -82.647 46.044 -82.644 46.049 
	-82.641 46.051 -82.638 46.052 -82.633 46.055 -82.633 46.055 
	-82.631 46.063 -82.627 46.078 -82.623 46.095 -82.622 46.101 
	-82.62 46.11 -82.617 46.118 -82.619 46.13 -82.619 46.131 
	-82.617 46.14 -82.612 46.147 -82.609 46.17 -82.608 46.179 
	-82.606 46.196 -82.604 46.207 -82.604 46.208 -82.604 46.208 
	-82.605 46.212 -82.605 46.217 -82.605 46.217 -82.605 46.218 
	-82.604 46.23 -82.604 46.233 -82.604 46.234 -82.604 46.236 
	-82.603 46.249 -82.602 46.253 -82.6 46.279 -82.6 46.283 
	-82.6 46.284 -82.597 46.297 -82.593 46.305 -82.59 46.319 
	-82.59 46.322 -82.585 46.343 -82.571 46.372 -82.565 46.384 
	-82.565 46.389 -82.565 46.39 -82.561 46.402 -82.557 46.413 
	-82.556 46.413 -82.553 46.422 -82.547 46.434 -82.54 46.448 
	-82.539 46.449 -82.538 46.455 -82.539 46.461 -82.539 46.464 
	-82.539 46.47 -82.538 46.482 -82.538 46.485 -82.537 46.493 
	-82.535 46.519 -82.536 46.538 -82.536 46.538 -82.536 46.539 
	-82.534 46.543 -82.534 46.543 -82.534 46.543 -82.53 46.553 
	-82.529 46.57 -82.53 46.574 -82.532 46.58 -82.532 46.581 
	-82.531 46.591 -82.529 46.605 -82.529 46.606 -82.529 46.61 
	-82.527 46.624 -82.527 46.627 -82.526 46.629 -82.526 46.633 
	-82.523 46.661 -82.519 46.672 -82.519 46.672 -82.519 46.672 
	-82.519 46.674 -82.518 46.675 -82.515 46.679 -82.508 46.69 
	-82.503 46.718 -82.503 46.718 -82.502 46.719 -82.501 46.725 
	-82.495 46.739 -82.494 46.743 -82.494 46.743 -82.492 46.754 
	-82.491 46.762 -82.49 46.768 -82.486 46.784 -82.471 46.799 
	-82.468 46.803 -82.46 46.818 -82.457 46.825 -82.443 46.847 
	-82.443 46.847 -82.44 46.852 -82.434 46.861 -82.429 46.868 
	-82.426 46.872 -82.422 46.879 -82.422 46.879 -82.415 46.881 
	-82.415 46.881 -82.417 46.882 -82.417 46.882 -82.422 46.887 
	-82.423 46.887 -82.423 46.888 -82.423 46.889 -82.424 46.89 
	-82.424 46.89 -82.424 46.891 -82.424 46.893 -82.424 46.894 
	-82.423 46.896 -82.423 46.898 -82.421 46.901 -82.42 46.901 
	-82.42 46.902 -82.42 46.902 -82.418 46.904 -82.412 46.91 
	-82.415 46.915 -82.416 46.918 -82.416 46.919 -82.416 46.92 
	-82.417 46.921 -82.428 46.935 -82.437 46.941 -82.442 46.946 
	-82.447 46.949 -82.447 46.949 -82.447 46.949 -82.455 46.96 
	-82.461 46.979 -82.464 46.985 -82.467 46.993 -82.467 46.994 
	-82.469 46.999 -82.469 47 -82.469 47.004 -82.47 47.005 
	-82.469 47.009 -82.469 47.009 -82.468 47.027 -82.468 47.034 
	-82.471 47.046 -82.472 47.05 -82.477 47.06 -82.478 47.061 
	-82.479 47.067 -82.479 47.068 -82.482 47.078 -82.481 47.08 
	-82.481 47.08 -82.481 47.081 -82.48 47.084 -82.479 47.085 
	-82.477 47.089 -82.471 47.102 -82.471 47.103 -82.467 47.117 
	-82.467 47.125 -82.471 47.131 -82.483 47.153 -82.483 47.158 
	-82.483 47.163 -82.483 47.168 -82.483 47.168 -82.483 47.169 
	-82.485 47.171 -82.486 47.173 -82.493 47.184 -82.494 47.186 
	-82.496 47.19 -82.496 47.19 -82.51 47.221 -82.51 47.233 
	-82.509 47.249 -82.511 47.253 -82.515 47.264 -82.516 47.267 
	-82.517 47.271 -82.518 47.273 -82.523 47.279 -82.548 47.295 
	-82.549 47.296 -82.554 47.303 -82.555 47.304 -82.569 47.313 
	-82.577 47.319 -82.577 47.32 -82.578 47.321 -82.579 47.321 
	-82.579 47.322 -82.583 47.333 -82.589 47.336 -82.604 47.338 
	-82.605 47.338 -82.606 47.338 -82.607 47.338 -82.611 47.336 
	-82.616 47.332 -82.623 47.33 -82.624 47.329 -82.633 47.33 
	-82.64 47.332 -82.642 47.332 -82.648 47.336 -82.651 47.338 
	-82.66 47.344 -82.661 47.345 -82.662 47.345 -82.666 47.351 
	-82.666 47.352 -82.679 47.364 -82.679 47.364 -82.686 47.368 
	-82.685 47.358 -82.679 47.351 -82.67 47.349 -82.664 47.34 
	-82.672 47.335 -82.68 47.329 -82.681 47.312 -82.688 47.298 
	-82.701 47.301 -82.711 47.296 -82.713 47.289 -82.7 47.28 
	-82.683 47.277 -82.681 47.268 -82.69 47.262 -82.689 47.259 
	-82.669 47.249 -82.652 47.254 -82.65 47.254 -82.649 47.254 
	-82.645 47.255 -82.633 47.246 -82.63 47.244 -82.626 47.239 
	-82.624 47.235 -82.623 47.231 -82.623 47.227 -82.623 47.222 
	-82.623 47.222 -82.623 47.221 -82.623 47.221 -82.624 47.221 
	-82.628 47.216 -82.63 47.213 -82.635 47.211 -82.635 47.211 
	-82.639 47.21 -82.656 47.208 -82.659 47.208 -82.661 47.207 
	-82.674 47.2 -82.685 47.197 -82.7 47.197 -82.706 47.203 
	-82.726 47.204 -82.726 47.204 -82.726 47.204 -82.734 47.208 
	-82.74 47.211 -82.742 47.212 -82.753 47.217 -82.756 47.221 
	-82.759 47.224 -82.765 47.231 -82.768 47.232 -82.78 47.234 
	-82.785 47.233 -82.785 47.233 -82.792 47.231 -82.797 47.233 
	-82.807 47.241 -82.807 47.241 -82.808 47.242 -82.808 47.242 
	-82.813 47.246 -82.813 47.246 -82.813 47.246 -82.815 47.249 
	-82.817 47.255 -82.818 47.257 -82.818 47.257 -82.82 47.26 
	-82.819 47.27 -82.811 47.276 -82.804 47.278 -82.803 47.278 
	-82.789 47.283 -82.787 47.288 -82.788 47.292 -82.788 47.292 
	-82.788 47.294 -82.788 47.304 -82.781 47.315 -82.782 47.322 
	-82.784 47.323 -82.789 47.318 -82.796 47.316 -82.81 47.316 
	-82.812 47.316 -82.817 47.316 -82.818 47.316 -82.818 47.316 
	-82.821 47.316 -82.834 47.319 -82.834 47.319 -82.835 47.32 
	-82.838 47.321 -82.839 47.322 -82.845 47.326 -82.845 47.326 
	-82.845 47.326 -82.847 47.328 -82.849 47.331 -82.851 47.338 
	-82.859 47.345 -82.86 47.346 -82.861 47.347 -82.867 47.355 
	-82.87 47.358 -82.872 47.36 -82.872 47.36 -82.872 47.36 
	-82.873 47.361 -82.874 47.363 -82.874 47.364 -82.875 47.366 
	-82.878 47.376 -82.88 47.381 -82.882 47.386 -82.882 47.387 
	-82.882 47.39 -82.882 47.397 -82.883 47.4 -82.883 47.4 
	-82.883 47.406 -82.883 47.409 -82.883 47.41 -82.883 47.413 
	-82.883 47.415 -82.883 47.416 -82.881 47.418 -82.881 47.418 
	-82.881 47.418 -82.879 47.422 -82.878 47.423 -82.878 47.423 
	-82.878 47.423 -82.874 47.429 -82.87 47.435 -82.87 47.436 
	-82.87 47.436 -82.874 47.448 -82.883 47.471 -82.886 47.478 
	-82.886 47.48 -82.886 47.481 -82.888 47.488 -82.894 47.497 
	-82.898 47.501 -82.9 47.502 -82.906 47.505 -82.912 47.507 
	-82.915 47.508 -82.919 47.512 -82.922 47.517 -82.922 47.517 
	-82.922 47.517 -82.924 47.52 -82.928 47.526 -82.928 47.527 
	-82.928 47.527 -82.928 47.527 -82.923 47.534 -82.923 47.534 
	-82.931 47.536 -82.939 47.538 -82.941 47.538 -82.945 47.539 
	-82.947 47.54 -82.952 47.543 -82.959 47.547 -82.984 47.553 
	-82.988 47.554 -83.007 47.556 -83.018 47.557 -83.025 47.559 
	-83.038 47.562 -83.04 47.563 -83.049 47.565 -83.063 47.569 
	-83.064 47.569 -83.073 47.575 -83.076 47.576 -83.079 47.578 
	-83.091 47.59 -83.096 47.596 -83.097 47.598 -83.098 47.6 
	-83.11 47.626 -83.113 47.629 -83.122 47.64 -83.128 47.648 
	-83.128 47.652 -83.13 47.679 -83.131 47.684 -83.133 47.712 
	-83.133 47.713 -83.127 47.736 -83.124 47.75 -83.122 47.758 
	-83.121 47.761 -83.133 47.798 -83.133 47.798 -83.157 47.801 
	-83.168 47.812 -83.168 47.813 -83.168 47.813 -83.172 47.814 
	-83.188 47.82 -83.189 47.825 -83.186 47.825 -83.185 47.834 
	-83.187 47.849 -83.188 47.855 -83.188 47.855 -83.185 47.857 
	-83.185 47.857 -83.181 47.867 -83.187 47.879 -83.19 47.88 
	-83.208 47.882 -83.209 47.891 -83.216 47.898 -83.223 47.897 
	-83.228 47.899 -83.244 47.911 -83.245 47.912 -83.249 47.914 
	-83.254 47.923 -83.257 47.927 -83.257 47.936 -83.261 47.94 
	-83.269 47.948 -83.27 47.947 -83.271 47.947 -83.271 47.947 
	-83.275 47.946 -83.286 47.942 -83.287 47.942 -83.291 47.942 
	-83.295 47.942 -83.302 47.943 -83.303 47.944 -83.304 47.945 
	-83.308 47.946 -83.31 47.948 -83.312 47.949 -83.315 47.951 
	-83.316 47.951 -83.317 47.952 -83.325 47.961 -83.326 47.962 
	-83.326 47.962 -83.326 47.963 -83.327 47.964 -83.332 47.978 
	-83.333 47.979 -83.333 47.98 -83.333 47.98 -83.335 47.99 
	-83.335 47.993 -83.335 47.995 -83.335 47.996 -83.335 47.997 
	-83.336 47.997 -83.34 48.004 -83.341 48.006 -83.341 48.007 
	-83.341 48.007 -83.347 48.011 -83.347 48.011 -83.351 48.013 
	-83.355 48.016 -83.356 48.016 -83.359 48.019 -83.36 48.019 
	-83.366 48.021 -83.367 48.019 -83.372 48.012 -83.378 48.014 
	-83.38 48.015 -83.381 48.016 -83.382 48.016 -83.389 48.025 
	-83.394 48.031 -83.394 48.032 -83.396 48.034 -83.409 48.056 
	-83.409 48.056 -83.417 48.061 -83.422 48.064 -83.433 48.068 
	-83.433 48.068 -83.434 48.068 -83.434 48.069 -83.438 48.073 
	-83.439 48.073 -83.439 48.074 -83.441 48.078 -83.442 48.085 
	-83.442 48.087 -83.443 48.096 -83.443 48.097 -83.443 48.097 
	-83.442 48.099 -83.441 48.103 -83.441 48.105 -83.44 48.106 
	-83.437 48.117 -83.427 48.136 -83.424 48.146 -83.434 48.15 
	-83.447 48.151 -83.451 48.152 -83.453 48.154 -83.453 48.154 
	-83.453 48.154 -83.476 48.154 -83.488 48.155 -83.491 48.155 
	-83.497 48.155 -83.499 48.155 -83.503 48.155 -83.504 48.155 
	-83.528 48.156 -83.547 48.156 -83.566 48.157 -83.585 48.157 
	-83.585 48.157 -83.593 48.157 -83.593 48.157 -83.595 48.157 
	-83.605 48.158 -83.605 48.158 -83.624 48.158 -83.636 48.159 
	-83.639 48.159 -83.645 48.159 -83.665 48.16 -83.685 48.16 
	-83.697 48.161 -83.709 48.161 -83.713 48.162 -83.714 48.162 
	-83.722 48.162 -83.763 48.163 -83.859 48.165 -83.88 48.166 
	-83.88 48.166 -83.899 48.167 -83.957 48.168 -83.998 48.17 
	-84.008 48.17 -84.115 48.173 -84.119 48.173 -84.143 48.174 
	-84.143 48.174 -84.202 48.176 -84.21 48.176 -84.23 48.176 
	-84.249 48.177 -84.36 48.18 -84.36 48.18 -84.396 48.181 
	-84.399 48.181 -84.399 48.181 -84.438 48.182 -84.456 48.182 
	-84.475 48.182 -84.512 48.183 -84.708 48.187 -84.747 48.188 
	-84.749 48.188 -84.806 48.19 -84.806 48.19 -84.806 48.179 
	-84.806 48.166 -84.806 48.154 -84.806 48.149 -84.806 48.143 
	-84.805 48.126 -84.818 48.127 -84.825 48.127 -84.825 48.127 
	-84.932 48.127 -84.932 48.127 -84.942 48.127 -84.96 48.127 
	-84.961 48.127 -84.971 48.127 -84.972 48.127 -84.989 48.127 
	-85.037 48.127 -85.039 48.127 -85.049 48.127 -85.058 48.127 
	-85.058 48.127 -85.117 48.127 -85.123 48.127 -85.172 48.127 
	-85.174 48.127 -85.174 48.127 -85.196 48.127 -85.232 48.127 
	-85.272 48.127 -85.272 48.127 -85.273 48.127 -85.292 48.127 
	-85.298 48.127 -85.308 48.126 -85.318 48.127 -85.33 48.127 
	-85.35 48.127 -85.379 48.127 -85.408 48.127 -85.408 48.127 
	-85.427 48.127 -85.432 48.127 -85.515 48.127 -85.518 48.127 
	-85.518 48.127 -85.525 48.127 -85.607 48.127 -85.608 48.127 
	-85.622 48.128 -85.624 48.127 -85.632 48.127 -85.647 48.127 
	-85.65 48.127 -85.659 48.127 -85.662 48.127 -85.724 48.127 
	-85.728 48.127 -85.728 48.127 -85.749 48.127 -85.75 48.127 
	-85.775 48.127 -85.791 48.128 -85.791 48.128 -85.81 48.127 
	-85.847 48.127 -85.872 48.127 -85.874 48.127 -85.878 48.127 
	-85.888 48.127 -85.897 48.127 -85.897 48.127 -85.974 48.127 
	-85.974 48.127 -85.991 48.127 -85.991 48.127 -85.991 48.127 
	-85.991 48.127 -86.001 48.127 -86.041 48.126 -86.062 48.126 
	-86.108 48.126 -86.125 48.126 -86.125 48.126 -86.127 48.126 
	-86.178 48.126 -86.217 48.127 -86.226 48.127 -86.226 48.127 
	-86.245 48.126 -86.25 48.126 -86.265 48.126 -86.272 48.126 
	-86.272 48.126 -86.303 48.126 -86.316 48.126 -86.358 48.127 
	-86.455 48.127 -86.501 48.127 -86.519 48.127 -86.553 48.127 
	-86.572 48.127 -86.621 48.127 -86.64 48.127 -86.641 48.127 
	-86.668 48.127 -86.721 48.127 -86.746 48.127 -86.748 48.127 
	-86.78 48.126 -86.78 48.126 -86.78 48.126 -86.8 48.126 
	-86.8 48.126 -86.801 48.126 -86.804 48.126 -86.804 48.126 
	-86.823 48.126 -86.824 48.126 -86.824 48.126 -86.804 48.116 
	-86.803 48.116 -86.802 48.115 -86.802 48.115 -86.777 48.102 
	-86.765 48.095 -86.749 48.086 -86.749 48.086 -86.742 48.082 
	-86.736 48.078 -86.718 48.068 -86.717 48.067 -86.704 48.058 
	-86.696 48.053 -86.679 48.042 -86.652 48.019 -86.646 48.015 
	-86.644 48.014 -86.621 47.995 -86.619 47.993 -86.616 47.989 
	-86.616 47.989 -86.614 47.987 -86.597 47.968 -86.591 47.958 
	-86.582 47.944 -86.578 47.936 -86.565 47.908 -86.562 47.901 
	-86.556 47.887 -86.545 47.869 -86.533 47.851 -86.523 47.836 
	-86.511 47.818 -86.509 47.814 -86.501 47.802 -86.49 47.781 
	-86.486 47.773 -86.485 47.768 -86.478 47.762 -86.477 47.762 
	-86.47 47.756 -86.466 47.753 -86.466 47.752 -86.464 47.75 
	-86.443 47.729 -86.414 47.7 -86.407 47.694 -86.404 47.69 
	-86.385 47.669 -86.384 47.668 -86.382 47.666 -86.364 47.644 
	-86.361 47.639 -86.356 47.632 -86.355 47.631 -86.331 47.593 
	-86.321 47.576 -86.311 47.555 -86.297 47.528 -86.292 47.514 
	-86.288 47.504 -86.287 47.502 -86.285 47.495 -86.284 47.492 
	-86.284 47.491 -86.284 47.488 -86.284 47.485 -86.276 47.473 
	-86.273 47.467 -86.273 47.467 -86.273 47.466 -86.267 47.455 
	-86.262 47.444 -86.261 47.443 -86.261 47.441 -86.252 47.415 
	-86.249 47.406 -86.249 47.405 -86.249 47.405 -86.245 47.381 
	-86.244 47.37 -86.243 47.365 -86.24 47.347 -86.24 47.345 
	-86.24 47.345 -86.24 47.344 -86.235 47.322 -86.228 47.303 
	-86.225 47.293 -86.225 47.292 -86.225 47.287 -86.225 47.287 
	-86.226 47.287 -86.227 47.27 -86.228 47.25 -86.229 47.249 
	-86.228 47.248 -86.228 47.247 -86.226 47.242 -86.223 47.236 
	-86.223 47.236 -86.216 47.223 -86.216 47.222 -86.215 47.221 
	-86.215 47.219 -86.213 47.214 -86.212 47.21 -86.211 47.205 
	-86.211 47.205 -86.208 47.195 -86.208 47.194 -86.208 47.194 
	-86.207 47.17 -86.207 47.17 -86.206 47.167 -86.207 47.155 
	-86.207 47.14 -86.207 47.138 -86.208 47.124 -86.208 47.119 
	-86.209 47.113 -86.21 47.103 -86.21 47.099 -86.211 47.095 
	-86.211 47.082 -86.211 47.075 -86.211 47.067 -86.211 47.055 
	-86.211 47.053 -86.211 47.048 -86.21 47.031 -86.21 47.03 
	-86.21 47.027 -86.21 47.026 -86.211 47.02 -86.213 47.005 
	-86.214 47.003 -86.214 46.99 -86.215 46.985 -86.215 46.976 
	-86.216 46.97 -86.216 46.968 -86.217 46.959 -86.219 46.944 
	-86.222 46.924 -86.225 46.903 -86.226 46.9 -86.226 46.898 
	-86.232 46.871 -86.238 46.853 -86.242 46.842 -86.244 46.837 
	-86.25 46.829 -86.25 46.828 -86.25 46.82 -86.25 46.819 
	-86.252 46.813 -86.254 46.803 -86.256 46.799 -86.257 46.798 
	-86.267 46.777 -86.271 46.769 -86.28 46.751 -86.292 46.731 
	-86.298 46.721 -86.316 46.691 -86.32 46.685 -86.341 46.652 
	-86.366 46.615 -86.383 46.59 -86.395 46.57 -86.396 46.569 
	-86.407 46.548 -86.409 46.545 -86.411 46.541 -86.425 46.511 
	-86.425 46.511 -86.427 46.507 -86.435 46.49 -86.435 46.488 
	-86.44 46.476 -86.442 46.471 -86.444 46.465 -86.448 46.455 
	-86.448 46.455 -86.454 46.438 -86.458 46.425 -86.462 46.414 
	-86.466 46.402 -86.468 46.395 -86.47 46.39 -86.478 46.372 
	-86.479 46.371 -86.479 46.37 -86.499 46.341 -86.504 46.334 
	-86.509 46.326 -86.52 46.31 -86.527 46.296 -86.529 46.293 
	-86.529 46.292 -86.538 46.269 -86.54 46.255 -86.54 46.253 
	-86.54 46.251 -86.54 46.245 -86.54 46.242 -86.54 46.241 
	-86.54 46.24 -86.538 46.231 -86.538 46.228 -86.538 46.228 
	-86.538 46.227 -86.529 46.209 -86.51 46.188 -86.481 46.161 
	-86.474 46.154 -86.462 46.141 -86.461 46.14 -86.46 46.139 
	-86.446 46.116 -86.445 46.116 -86.445 46.115 -86.443 46.112 
	-86.442 46.11 -86.437 46.097 -86.437 46.097 -86.437 46.096 
	-86.431 46.072 -86.431 46.071 -86.431 46.067 -86.431 46.067 
	-86.431 46.046 -86.433 46.031 -86.445 45.997 -86.445 45.995 
	-86.446 45.987 -86.447 45.968 -86.454 45.946 -86.456 45.939 
	-86.457 45.935 -86.459 45.929 -86.459 45.928 -86.462 45.917 
	-86.462 45.917 -86.462 45.917 -86.463 45.916 -86.464 45.914 
	-86.472 45.902 -86.483 45.885 -86.499 45.868 -86.501 45.865 
	-86.501 45.865 -86.502 45.864 -86.506 45.857 -86.507 45.856 
	-86.508 45.854 -86.509 45.851 -86.514 45.839 -86.514 45.828 
	-86.508 45.819 -86.508 45.819 -86.508 45.818 -86.5 45.811 
	-86.489 45.805 -86.475 45.797 -86.447 45.781 -86.446 45.781 
	-86.445 45.779 -86.429 45.767 -86.421 45.757 -86.419 45.755 
	-86.4 45.73 -86.386 45.708 -86.38 45.697 -86.377 45.695 
	-86.362 45.678 -86.352 45.658 -86.351 45.657 -86.351 45.657 
	-86.351 45.657 -86.351 45.657 -86.349 45.651 -86.349 45.651 
	-86.343 45.637 -86.343 45.636 -86.342 45.636 -86.327 45.624 
	-86.327 45.623 -86.327 45.623 -86.316 45.604 -86.316 45.603 
	-86.316 45.602 -86.315 45.602 -86.309 45.592 -86.3 45.578 
	-86.268 45.541 -86.265 45.53 -86.264 45.528 -86.251 45.486 
	-86.248 45.466 -86.248 45.459 -86.248 45.459 -86.248 45.454 
	-86.248 45.453 -86.248 45.452 -86.248 45.45 -86.251 45.437 
	-86.251 45.435 -86.251 45.435 -86.251 45.432 -86.251 45.424 
	-86.251 45.421 -86.251 45.42 -86.251 45.418 -86.248 45.404 
	-86.243 45.398 -86.243 45.398 -86.243 45.397 -86.239 45.386 
	-86.238 45.385 -86.233 45.368 -86.223 45.338 -86.22 45.32 
	-86.224 45.296 -86.225 45.293 -86.225 45.292 -86.225 45.291 
	-86.228 45.286 -86.229 45.282 -86.231 45.277 -86.233 45.275 
	-86.243 45.257 -86.249 45.246 -86.251 45.243 -86.253 45.238 
	-86.257 45.229 -86.258 45.224 -86.259 45.223 -86.258 45.222 
	-86.257 45.21 -86.256 45.2 -86.255 45.196 -86.255 45.195 
	-86.254 45.195 -86.253 45.193 -86.248 45.188 -86.233 45.181 
	-86.232 45.181 -86.23 45.18 -86.198 45.172 -86.172 45.166 
	-86.161 45.159 -86.16 45.158 -86.155 45.158 -86.121 45.159 
	-86.119 45.158 -86.106 45.155 -86.089 45.146 -86.089 45.145 
	-86.088 45.144 -86.084 45.138 -86.077 45.128 -86.077 45.128 
	-86.073 45.117 -86.073 45.108 " />
<polyline id="poly5" points="
	-83.445 44.927 " />
<polyline id="poly6" points="
	-85.508 44.154 -85.498 44.16 -85.494 44.181 -85.494 44.188 
	-85.502 44.196 -85.506 44.205 -85.503 44.216 -85.5 44.222 
	-85.49 44.234 -85.487 44.265 -85.491 44.277 -85.509 44.29 
	-85.518 44.294 -85.526 44.295 -85.53 44.297 -85.534 44.308 
	-85.541 44.312 -85.561 44.314 -85.618 44.304 -85.622 44.301 
	-85.63 44.288 -85.619 44.262 -85.608 44.255 -85.604 44.247 
	-85.604 44.239 -85.609 44.228 -85.604 44.205 -85.6 44.198 
	-85.59 44.189 -85.583 44.186 -85.572 44.175 -85.565 44.156 
	-85.565 44.154 -85.564 44.141 -85.567 44.136 -85.567 44.129 
	-85.566 44.126 -85.549 44.129 -85.543 44.135 -85.535 44.136 
	-85.525 44.136 -85.506 44.132 -85.501 44.132 -85.497 44.14 
	-85.503 44.144 -85.508 44.144 -85.51 44.144 -85.508 44.142 
	-85.509 44.138 -85.515 44.137 -85.52 44.142 -85.521 44.147 
	-85.52 44.149 -85.51 44.152 -85.508 44.154 " />
<polyline id="poly7" points="
	-86.033 44.728 -86.005 44.731 -85.993 44.734 -85.989 44.735 
	-85.976 44.748 -85.976 44.766 -85.98 44.774 -85.984 44.799 
	-85.982 44.806 -85.977 44.814 -85.976 44.824 -85.997 44.831 
	-86.013 44.823 -86.019 44.815 -86.037 44.8 -86.052 44.791 
	-86.058 44.786 -86.06 44.782 -86.065 44.746 -86.059 44.734 
	-86.05 44.728 -86.044 44.727 -86.033 44.728 " />
<polyline id="poly8" points="
	-86.093 44.879 -86.115 44.887 -86.133 44.89 -86.154 44.884 
	-86.156 44.876 -86.154 44.868 -86.141 44.846 -86.138 44.844 
	-86.117 44.838 -86.093 44.845 -86.079 44.856 -86.093 44.855 
	-86.097 44.856 -86.1 44.86 -86.101 44.864 -86.101 44.868 
	-86.093 44.879 " />
</g>
</svg>
